<?xml version="1.0" encoding="utf-8"?>
<!-- Generator: Adobe Illustrator 24.1.2, SVG Export Plug-In . SVG Version: 6.00 Build 0)  -->
<svg version="1.1" xmlns="http://www.w3.org/2000/svg" xmlns:xlink="http://www.w3.org/1999/xlink" x="0px" y="0px"
	 viewBox="0 0 200 300" style="enable-background:new 0 0 200 300;" xml:space="preserve">
<style type="text/css">
	.st0{display:none;}
	.st1{display:inline;}
	.st2{fill:#EBC8E1;}
</style>
<g id="Layer_2" class="st0">
	<g class="st1">
		<path class="st2" d="M84.71,8.6c-12.14,2.85-25.06,6.15-33.44,15.37c-2.29,2.52-4.15,5.39-5.84,8.35
			c-13.01,22.73-15.81,51.96-3.88,75.27c2.4,4.68,5.39,9.14,9.41,12.52c5.26,4.43,11.96,6.76,18.64,8.39
			c17.58,4.29,36.31,4.31,53.64-0.89c17.33-5.19,33.18-15.7,43.98-30.23c3.26-4.38,6.08-9.17,7.61-14.41
			c1.12-3.82,1.53-7.82,1.44-11.8c-0.33-14.84-7.72-28.98-18.3-39.39s-24.14-17.38-38.18-22.17C104.57,4.45,86.96,1.88,73.02,9.9
			L84.71,8.6z"/>
		<g>
			<path d="M84.31,7.15C71.2,10.24,57.02,13.94,48.38,25.1c-4.48,5.78-7.76,12.62-10.32,19.44c-2.51,6.67-4.17,13.64-5.01,20.71
				c-1.67,14.07,0.27,28.61,6.39,41.45c3.12,6.54,7.34,12.66,13.45,16.72c6.19,4.11,13.64,6.1,20.85,7.54
				c15.79,3.16,32.34,2.96,47.9-1.32c13.49-3.71,26.15-10.54,36.49-19.98c5.23-4.78,9.97-10.27,13.65-16.33
				c4.17-6.87,6.23-14.49,5.98-22.54c-0.44-14.18-7.07-27.58-16.61-37.86c-10.04-10.81-23.26-18.17-36.97-23.31
				C110.91,4.65,95.88,1.1,81.81,4.74c-3.33,0.86-6.55,2.17-9.54,3.87c-1.22,0.69-0.77,2.97,0.76,2.8c3.89-0.43,7.79-0.87,11.68-1.3
				c1.9-0.21,1.92-3.21,0-3c-3.89,0.43-7.79,0.87-11.68,1.3c0.25,0.93,0.5,1.86,0.76,2.8c12.23-6.94,27.03-5.54,40.05-1.85
				c13.46,3.81,26.81,9.86,37.72,18.73c10.45,8.49,18.73,19.93,21.91,33.15c1.71,7.09,1.95,14.76-0.2,21.78
				c-2.06,6.73-6.27,12.73-10.85,17.99c-8.74,10.04-20.03,17.81-32.39,22.7c-13.92,5.49-29.06,7.33-43.93,6.04
				c-7.48-0.65-15.05-2.02-22.18-4.4c-6.76-2.26-12.72-5.93-16.97-11.74c-7.92-10.84-11.38-24.86-11.47-38.13
				c-0.09-13.68,3.35-27.38,9.68-39.5c3.24-6.2,7.11-11.95,12.97-15.95c5.39-3.67,11.58-5.91,17.82-7.65
				c3.03-0.85,6.1-1.59,9.17-2.31C86.98,9.61,86.19,6.71,84.31,7.15z"/>
		</g>
	</g>
	<g class="st1">
		<path class="st2" d="M38.27,302.13c-4.16-7.24-1.34-25.68,4.28-62.55c5.76-37.74,10.53-50,17.18-61.6
			c7.05-12.3,16.98-22.29,28.4-28.58c7.7-4.24,16.23-6.83,24.69-5.9s16.82,5.7,21.69,13.89c2.13,3.58,3.54,7.68,4.84,11.78
			c11.2,35.39,11.47,99.39,11.96,107.11c1.52,24.06,2.42,26.33-0.35,31.06C134.56,335.33,56.85,334.51,38.27,302.13z"/>
		<g>
			<path d="M39.57,301.37c-0.09-0.17-0.18-0.33-0.27-0.5c-0.05-0.11-0.27-0.58-0.22-0.47c-0.05-0.12-0.3-0.85-0.41-1.2
				c-0.27-0.93-0.49-2.07-0.6-2.89c-0.33-2.52-0.33-5.44-0.23-8.11c0.31-8.52,1.55-17.01,2.75-25.44
				c1.79-12.53,3.61-25.07,5.84-37.53c1.58-8.86,3.37-17.71,5.97-26.34c4.37-14.51,11.94-28.11,23.12-38.49
				c8.44-7.83,19.46-14.57,31.17-15.49c11.29-0.88,22.12,4.65,27.39,14.8c2.47,4.76,3.99,10.05,5.37,15.22
				c1.15,4.3,2.1,8.65,2.93,13.01c1.82,9.55,3.07,19.21,4.05,28.89c1.66,16.44,2.51,32.94,3.02,49.45
				c0.15,4.89,0.31,9.76,0.64,14.64c0.31,4.62,0.67,9.24,0.95,13.87c0.14,2.43,0.32,4.9,0.1,7.34c-0.05,0.59-0.12,1.14-0.39,2.05
				c-0.1,0.34-0.22,0.67-0.35,0.99c0.15-0.36-0.03,0.07-0.1,0.19c-0.09,0.19-0.18,0.37-0.28,0.56c-1.17,2.2-2.74,4.16-4.53,5.9
				c-4.41,4.3-10.07,7.21-15.82,9.26c-14.3,5.12-30.27,5.9-45.23,3.91c-13.95-1.85-29.08-6.38-39.35-16.51
				C42.96,306.36,41.08,303.99,39.57,301.37c-0.97-1.67-3.56-0.16-2.59,1.51c7.29,12.61,21.75,19.37,35.34,22.81
				c15.54,3.94,32.3,4.39,48,1.1c6.91-1.44,13.78-3.7,19.88-7.29c4.98-2.93,9.68-6.92,12.42-12.09c2-3.76,1.69-8.04,1.46-12.17
				c-0.42-7.35-1.17-14.68-1.4-22.04c-0.47-14.61-0.98-29.2-2.11-43.78c-0.78-10.01-1.79-20-3.23-29.93
				c-1.35-9.32-3.03-18.63-5.63-27.69c-1.59-5.56-3.36-11.34-6.54-16.22c-2.99-4.58-7.23-8.33-12.17-10.71
				c-11.33-5.44-24.11-2.93-34.83,2.76c-16.38,8.7-28.42,24.03-35.36,41.01c-2.73,6.68-4.64,13.67-6.25,20.69
				c-2.65,11.59-4.47,23.36-6.26,35.11c-1.68,11.05-3.43,22.1-4.63,33.22c-0.7,6.47-1.44,13.21-0.45,19.69
				c0.29,1.91,0.8,3.81,1.76,5.51C37.93,304.57,40.52,303.06,39.57,301.37z"/>
		</g>
	</g>
</g>
<g id="Heads">
	<g id="_x35_" class="st0">
		<g class="st1">
			<g>
				<path d="M58.07,47.26c0.08,2.75,0.01,5.57,0.45,8.29c0.4,2.5,1.57,4.84,3.76,6.22c2.05,1.29,4.64,1.29,6.56-0.25
					c1.65-1.33,2.37-3.5,2.76-5.51c0.6-3.07,0.97-6.2,1.44-9.29c0.12-0.8-0.2-1.61-1.05-1.85c-0.71-0.19-1.72,0.24-1.85,1.05
					c-0.37,2.46-0.75,4.91-1.12,7.37c-0.26,1.68-0.45,3.53-1.34,5.02c-0.7,1.19-1.94,1.78-3.33,1.18c-1.81-0.79-2.57-2.66-2.9-4.49
					c-0.45-2.52-0.31-5.19-0.38-7.74C61.01,45.33,58.01,45.32,58.07,47.26L58.07,47.26z"/>
			</g>
		</g>
		<g class="st1">
			<g>
				<path d="M124.23,49.61c0.97,2.28,0.47,4.95,0.77,7.36c0.29,2.34,1.08,4.66,3.05,6.11c1.84,1.35,4.41,1.35,6.37,0.26
					c2.27-1.26,2.95-3.68,3.15-6.1c0.28-3.3,0.44-6.62,0.66-9.93c0.05-0.81-0.73-1.5-1.5-1.5c-0.86,0-1.45,0.69-1.5,1.5
					c-0.17,2.54-0.34,5.09-0.51,7.63c-0.11,1.71,0.09,4.3-1.36,5.5c-1.02,0.85-2.61,0.97-3.66,0.15c-1.31-1.01-1.68-2.92-1.79-4.47
					c-0.19-2.76,0.01-5.43-1.1-8.03c-0.32-0.75-1.42-0.91-2.05-0.54C123.99,48.01,123.91,48.86,124.23,49.61L124.23,49.61z"/>
			</g>
		</g>
		<g class="st1">
			<g>
				<path d="M76.52,83.3c0.67,1.9,1.41,3.91,2.93,5.31c1.43,1.32,3.38,1.95,5.3,1.91c4.45-0.09,8.23-3.21,11.42-5.98
					c-0.84-0.22-1.67-0.44-2.51-0.66c1.47,4.29,5.47,7.39,10.07,7.42c5.15,0.03,9.36-3.4,12.02-7.54c1.05-1.63-1.55-3.14-2.59-1.51
					c-2,3.12-5.12,5.89-9.01,6.04c-3.37,0.13-6.5-2.01-7.6-5.21c-0.38-1.11-1.63-1.42-2.51-0.66c-2.42,2.1-5.21,4.52-8.49,5.03
					c-1.38,0.22-2.92-0.02-4-0.97c-1.15-1.01-1.67-2.59-2.16-3.99C78.78,80.7,75.88,81.48,76.52,83.3L76.52,83.3z"/>
			</g>
		</g>
	</g>
	<g id="_x34_">
		<g>
			<g>
				<path d="M62.25,43.02c-2.67,1.29-5.27,2.78-6.68,5.51c-1.35,2.63-1.72,5.85-1.32,8.76c0.84,6.04,6.6,9.49,12.24,10.17
					c5.72,0.69,11.49-1.65,14.67-6.55c2.93-4.51,3.42-11.54-1.1-15.24c-2.64-2.16-6.18-3.19-9.51-3.54
					c-3.36-0.36-6.98-0.06-9.71,2.1c-1.51,1.2,0.62,3.31,2.12,2.12c1.8-1.42,4.52-1.44,6.69-1.3c2.45,0.16,4.99,0.81,7.14,2.02
					c4.14,2.31,4.42,7.52,2.34,11.38c-2.13,3.94-6.22,6.14-10.66,6.14c-4.13,0-9.53-1.95-10.94-6.25c-0.78-2.4-0.58-5.42,0.37-7.74
					c1.06-2.61,3.45-3.83,5.86-4.99C65.5,44.77,63.98,42.18,62.25,43.02L62.25,43.02z"/>
			</g>
		</g>
		<g>
			<g>
				<path d="M129.1,42.97c-2.63,1.41-5.35,2.9-7.29,5.23c-1.91,2.29-3.02,5.13-3.37,8.08c-0.36,2.98,0.34,5.95,2.53,8.09
					c1.98,1.93,4.63,2.92,7.35,3.16c3.14,0.28,6.37-0.47,9.35-1.39c2.64-0.81,5.25-1.93,7.35-3.77c4.3-3.75,5.41-11.14,1.82-15.74
					c-2.09-2.68-5.54-3.78-8.78-4.24c-3.8-0.54-7.61-0.16-11.4,0.3c-1.89,0.23-1.92,3.23,0,3c5-0.61,10.98-1.44,15.64,1.02
					c4.34,2.3,4.7,8.54,1.87,12.21c-2.73,3.54-8.25,4.97-12.46,5.52c-4.45,0.58-10.27-1.03-10.38-6.41c-0.06-2.71,0.9-5.61,2.6-7.72
					c1.74-2.17,4.28-3.48,6.68-4.76C132.31,44.65,130.8,42.06,129.1,42.97L129.1,42.97z"/>
			</g>
		</g>
		<g>
			<g>
				<path d="M60.75,57.46c0,0.14,0,0.29,0.01,0.43c0.02,0.26,0.04,0.54,0.12,0.78c0.15,0.43,0.41,0.82,0.83,1.04
					c0.43,0.22,0.9,0.28,1.37,0.16c1.02-0.26,1.66-1.34,1.58-2.36c-0.04-0.47-0.12-0.95-0.38-1.35c-0.19-0.31-0.41-0.53-0.71-0.73
					c-0.31-0.2-0.69-0.29-1.06-0.3c-0.22-0.01-0.45,0.02-0.67,0.08c-0.11,0.03-0.21,0.08-0.31,0.12c-0.11,0.05-0.22,0.09-0.32,0.15
					c-0.18,0.11-0.37,0.25-0.52,0.41c-0.12,0.12-0.22,0.26-0.32,0.4c-0.04,0.05-0.07,0.1-0.1,0.16c-0.1,0.2-0.2,0.42-0.25,0.64
					c-0.05,0.24-0.09,0.51-0.07,0.76c0.04,0.51,0.15,0.95,0.41,1.4c0.29,0.52,0.74,0.91,1.32,1.09c0.03,0.01,0.06,0.02,0.1,0.02
					c0.14,0.02,0.29,0.05,0.43,0.06c0.06,0,0.11,0,0.16-0.01c0.15-0.02,0.37-0.03,0.53-0.09c0.17-0.06,0.36-0.13,0.51-0.22
					c0.19-0.12,0.38-0.26,0.53-0.44c0.1-0.12,0.23-0.27,0.31-0.42c0.09-0.16,0.15-0.33,0.22-0.5c0.08-0.22,0.1-0.48,0.13-0.7
					c0.03-0.25-0.01-0.51-0.07-0.75c-0.04-0.17-0.12-0.34-0.19-0.5c-0.02-0.05-0.05-0.1-0.09-0.15c-0.21-0.29-0.44-0.55-0.77-0.72
					c-0.31-0.15-0.65-0.27-1.01-0.24c-0.42,0.04-0.47,0.06-0.85,0.23c-0.16,0.07-0.32,0.2-0.44,0.31c-0.27,0.24-0.44,0.56-0.56,0.9
					c-0.06,0.18-0.08,0.39-0.09,0.57c-0.01,0.19,0.03,0.39,0.06,0.58c0.06,0.34,0.26,0.69,0.51,0.93c0.55,0.52,1.34,0.62,2,0.26
					c0.77-0.42,1.1-1.38,0.88-2.2c-0.09-0.34-0.3-0.7-0.56-0.94c-0.31-0.28-0.56-0.41-0.95-0.55c-0.2-0.06-0.4-0.07-0.6-0.03
					c-0.2,0.01-0.39,0.07-0.56,0.18c-0.31,0.18-0.61,0.54-0.69,0.9c-0.09,0.38-0.07,0.81,0.15,1.16c0.08,0.1,0.16,0.2,0.23,0.3
					c0.19,0.19,0.41,0.31,0.66,0.39c0.02,0.01,0.04,0.02,0.06,0.02c-0.12-0.05-0.24-0.1-0.36-0.15c0.06,0.03,0.12,0.06,0.17,0.1
					c-0.1-0.08-0.2-0.16-0.3-0.23c0.04,0.04,0.08,0.07,0.12,0.12c-0.08-0.1-0.16-0.2-0.23-0.3c0.03,0.05,0.06,0.09,0.09,0.14
					c-0.05-0.12-0.1-0.24-0.15-0.36c0.02,0.04,0.03,0.08,0.04,0.13c-0.02-0.13-0.04-0.27-0.05-0.4c0.01,0.05,0.01,0.09,0,0.13
					c0.02-0.13,0.04-0.27,0.05-0.4c-0.01,0.04-0.02,0.09-0.03,0.13c0.05-0.12,0.1-0.24,0.15-0.36c-0.01,0.03-0.03,0.06-0.05,0.08
					c0.08-0.1,0.16-0.2,0.23-0.3c-0.02,0.03-0.04,0.05-0.07,0.07c0.1-0.08,0.2-0.16,0.3-0.23c-0.02,0.01-0.03,0.02-0.05,0.03
					c0.12-0.05,0.24-0.1,0.36-0.15c-0.02,0.01-0.04,0.01-0.06,0.01c0.13-0.02,0.27-0.04,0.4-0.05c-0.01,0-0.02,0-0.03,0
					c0.13,0.02,0.27,0.04,0.4,0.05c-0.02,0-0.04-0.01-0.06-0.02c0.12,0.05,0.24,0.1,0.36,0.15c-0.01,0-0.02-0.01-0.02-0.01
					c0.1,0.08,0.2,0.16,0.3,0.23c-0.02-0.01-0.03-0.02-0.04-0.04c0.08,0.1,0.16,0.2,0.23,0.3c-0.02-0.03-0.03-0.05-0.05-0.08
					c0.05,0.12,0.1,0.24,0.15,0.36c-0.03-0.06-0.04-0.13-0.05-0.2c0.02,0.13,0.04,0.27,0.05,0.4c-0.01-0.06-0.01-0.12,0-0.18
					c-0.02,0.13-0.04,0.27-0.05,0.4c0.01-0.06,0.03-0.12,0.05-0.17c-0.05,0.12-0.1,0.24-0.15,0.36c0.02-0.04,0.04-0.08,0.07-0.11
					c-0.08,0.1-0.16,0.2-0.23,0.3c0.03-0.03,0.06-0.06,0.09-0.09c-0.1,0.08-0.2,0.16-0.3,0.23c0.04-0.03,0.09-0.06,0.14-0.08
					c-0.12,0.05-0.24,0.1-0.36,0.15c0.03-0.01,0.06-0.02,0.09-0.02c-0.13,0.02-0.27,0.04-0.4,0.05c0.04-0.01,0.08-0.01,0.13,0
					c-0.13-0.02-0.27-0.04-0.4-0.05c0.04,0.01,0.08,0.02,0.12,0.03c-0.12-0.05-0.24-0.1-0.36-0.15c0.04,0.02,0.08,0.04,0.11,0.07
					c-0.1-0.08-0.2-0.16-0.3-0.23c0.04,0.03,0.08,0.07,0.12,0.12c-0.08-0.1-0.16-0.2-0.23-0.3c0.03,0.05,0.06,0.1,0.09,0.15
					c-0.05-0.12-0.1-0.24-0.15-0.36c0.03,0.07,0.04,0.14,0.06,0.21c-0.02-0.13-0.04-0.27-0.05-0.4c0.01,0.1,0.01,0.2,0,0.3
					c0.02-0.13,0.04-0.27,0.05-0.4c-0.02,0.12-0.05,0.23-0.09,0.33c0.05-0.12,0.1-0.24,0.15-0.36c-0.03,0.07-0.07,0.14-0.12,0.21
					c0.08-0.1,0.16-0.2,0.23-0.3c-0.05,0.06-0.1,0.12-0.17,0.17c0.1-0.08,0.2-0.16,0.3-0.23c-0.05,0.03-0.09,0.06-0.14,0.08
					c0.12-0.05,0.24-0.1,0.36-0.15c-0.06,0.03-0.13,0.04-0.19,0.06c0.13-0.02,0.27-0.04,0.4-0.05c-0.07,0.01-0.13,0.01-0.2,0
					c0.13,0.02,0.27,0.04,0.4,0.05c-0.05-0.01-0.11-0.02-0.16-0.04c0.12,0.05,0.24,0.1,0.36,0.15c-0.04-0.02-0.08-0.04-0.11-0.07
					c0.1,0.08,0.2,0.16,0.3,0.23c-0.05-0.04-0.1-0.09-0.14-0.15c0.08,0.1,0.16,0.2,0.23,0.3c-0.08-0.11-0.14-0.22-0.19-0.34
					c0.05,0.12,0.1,0.24,0.15,0.36c-0.05-0.13-0.09-0.26-0.11-0.39c0.02,0.13,0.04,0.27,0.05,0.4c-0.01-0.12-0.02-0.24,0-0.36
					c-0.02,0.13-0.04,0.27-0.05,0.4c0.02-0.1,0.04-0.2,0.08-0.3c-0.05,0.12-0.1,0.24-0.15,0.36c0.04-0.09,0.09-0.17,0.15-0.24
					c-0.08,0.1-0.16,0.2-0.23,0.3c0.06-0.07,0.13-0.14,0.2-0.2c-0.1,0.08-0.2,0.16-0.3,0.23c0.07-0.05,0.14-0.09,0.21-0.12
					c-0.12,0.05-0.24,0.1-0.36,0.15c0.08-0.03,0.15-0.05,0.24-0.06c-0.13,0.02-0.27,0.04-0.4,0.05c0.07-0.01,0.13-0.01,0.2,0
					c-0.13-0.02-0.27-0.04-0.4-0.05c0.06,0.01,0.12,0.02,0.17,0.05c-0.12-0.05-0.24-0.1-0.36-0.15c0.04,0.02,0.08,0.04,0.12,0.07
					c-0.1-0.08-0.2-0.16-0.3-0.23c0.04,0.03,0.08,0.07,0.11,0.12c-0.08-0.1-0.16-0.2-0.23-0.3c0.04,0.05,0.07,0.11,0.1,0.17
					c-0.05-0.12-0.1-0.24-0.15-0.36c0.05,0.12,0.08,0.25,0.1,0.38c-0.02-0.13-0.04-0.27-0.05-0.4c0.02,0.13,0.02,0.26,0,0.39
					c0.02-0.13,0.04-0.27,0.05-0.4c-0.01,0.08-0.03,0.17-0.07,0.25c0.05-0.12,0.1-0.24,0.15-0.36c-0.03,0.06-0.06,0.11-0.09,0.16
					c0.08-0.1,0.16-0.2,0.23-0.3c-0.03,0.04-0.07,0.08-0.11,0.11c0.1-0.08,0.2-0.16,0.3-0.23c-0.04,0.03-0.08,0.05-0.13,0.07
					c0.12-0.05,0.24-0.1,0.36-0.15c-0.04,0.01-0.07,0.02-0.11,0.03c0.13-0.02,0.27-0.04,0.4-0.05c-0.04,0-0.07,0.01-0.11,0
					c0.13,0.02,0.27,0.04,0.4,0.05c-0.03,0-0.05-0.01-0.08-0.02c0.12,0.05,0.24,0.1,0.36,0.15c-0.03-0.01-0.05-0.02-0.07-0.04
					c0.1,0.08,0.2,0.16,0.3,0.23c-0.01-0.01-0.03-0.03-0.04-0.04c0.08,0.1,0.16,0.2,0.23,0.3c-0.01-0.02-0.03-0.04-0.04-0.06
					c0.05,0.12,0.1,0.24,0.15,0.36c-0.03-0.07-0.04-0.14-0.05-0.21c0.02,0.13,0.04,0.27,0.05,0.4c-0.03-0.2-0.04-0.4-0.03-0.6
					c0.01-0.38-0.18-0.8-0.44-1.06c-0.26-0.26-0.69-0.46-1.06-0.44c-0.39,0.02-0.79,0.14-1.06,0.44
					C60.92,56.7,60.77,57.05,60.75,57.46L60.75,57.46z"/>
			</g>
		</g>
		<g>
			<g>
				<path d="M138.29,54.17c-0.1,0.14-0.19,0.29-0.26,0.45c-0.06,0.12-0.15,0.3-0.18,0.45c-0.01,0.07-0.02,0.13-0.03,0.2
					c-0.02,0.07-0.02,0.15-0.03,0.22c-0.01,0.14,0.02,0.29,0.06,0.43c0.07,0.28,0.26,0.62,0.48,0.81c0.05,0.04,0.1,0.08,0.15,0.12
					c0.05,0.05,0.11,0.09,0.17,0.13c0.07,0.04,0.15,0.07,0.22,0.1c0.1,0.04,0.17,0.08,0.27,0.1c0.34,0.06,0.64,0.08,0.98-0.02
					c0.17-0.05,0.36-0.12,0.51-0.22c0.13-0.08,0.25-0.18,0.37-0.28c0.03-0.02,0.05-0.05,0.07-0.07c0.11-0.13,0.25-0.29,0.33-0.46
					c0.07-0.16,0.17-0.35,0.2-0.53c0.03-0.16,0.06-0.32,0.06-0.48c0-0.09-0.02-0.19-0.03-0.28c-0.01-0.09-0.02-0.19-0.04-0.28
					c-0.01-0.02-0.01-0.04-0.02-0.06c-0.05-0.13-0.1-0.27-0.17-0.4c-0.04-0.08-0.11-0.15-0.16-0.22c-0.06-0.08-0.1-0.15-0.17-0.21
					c-0.1-0.09-0.24-0.21-0.38-0.28c-0.3-0.15-0.35-0.16-0.64-0.2c-0.28-0.04-0.47-0.04-0.77,0.04c-0.33,0.09-0.56,0.25-0.82,0.46
					c-0.15,0.12-0.26,0.29-0.36,0.45c-0.05,0.08-0.08,0.17-0.11,0.26c-0.04,0.09-0.09,0.18-0.11,0.28c-0.05,0.19-0.08,0.4-0.07,0.6
					c0.01,0.16,0.03,0.32,0.06,0.48c0.01,0.05,0.02,0.09,0.03,0.14c0.06,0.18,0.13,0.36,0.23,0.52c0.21,0.31,0.36,0.45,0.67,0.67
					c0.15,0.1,0.33,0.17,0.5,0.23c0.33,0.1,0.62,0.07,0.95,0.02c0.19-0.03,0.37-0.11,0.52-0.22c0.29-0.2,0.46-0.36,0.65-0.66
					c0.23-0.37,0.29-0.74,0.34-1.16c0.01-0.08,0.01-0.15,0.01-0.23c-0.01-0.16-0.04-0.33-0.06-0.49c-0.01-0.04-0.02-0.08-0.03-0.12
					c-0.11-0.3-0.23-0.55-0.47-0.77c-0.34-0.32-0.75-0.47-1.21-0.49c-0.2-0.01-0.4,0.03-0.59,0.07c-0.18,0.04-0.37,0.14-0.53,0.2
					c-0.06,0.03-0.12,0.06-0.17,0.09c-0.12,0.08-0.24,0.18-0.35,0.27c-0.03,0.02-0.06,0.05-0.09,0.08
					c-0.45,0.44-0.74,1.08-0.73,1.71c0,0.19,0.02,0.39,0.08,0.57c0.05,0.15,0.11,0.29,0.18,0.43c0.01,0.01,0.01,0.02,0.02,0.03
					c0.07,0.11,0.17,0.24,0.26,0.33c0.33,0.37,0.87,0.58,1.37,0.57c0.37-0.01,0.79-0.11,1.1-0.33c0.14-0.1,0.3-0.21,0.42-0.34
					c0.1-0.12,0.2-0.24,0.28-0.37c0.02-0.03,0.04-0.06,0.06-0.1c0.09-0.17,0.16-0.34,0.22-0.52c0.06-0.19,0.07-0.39,0.09-0.58
					c0.01-0.07,0-0.14,0-0.2c-0.02-0.19-0.03-0.4-0.1-0.58c-0.13-0.33-0.21-0.53-0.47-0.79c-0.01-0.01-0.03-0.02-0.04-0.03
					c-0.09-0.08-0.22-0.19-0.32-0.25c-0.14-0.09-0.3-0.15-0.46-0.2c-0.18-0.05-0.38-0.08-0.57-0.07c-0.4,0.03-0.56,0.08-0.92,0.25
					c-0.16,0.07-0.32,0.22-0.44,0.32c-0.14,0.12-0.25,0.29-0.35,0.44c-0.02,0.03-0.03,0.06-0.05,0.09
					c-0.07,0.14-0.13,0.29-0.18,0.43c-0.06,0.18-0.08,0.38-0.08,0.57c0,0.19,0.02,0.4,0.08,0.58c0.04,0.15,0.11,0.29,0.18,0.43
					c0.02,0.04,0.04,0.08,0.06,0.11c0.09,0.13,0.18,0.25,0.28,0.36c0.1,0.11,0.24,0.2,0.36,0.29c0.16,0.12,0.36,0.19,0.54,0.25
					c0.02,0.01,0.04,0.01,0.05,0.01c0.13,0.03,0.29,0.04,0.42,0.06c0.04,0,0.07,0.01,0.11,0c0.13-0.01,0.29-0.03,0.42-0.06
					c0.02,0,0.04-0.01,0.06-0.01c0.15-0.04,0.3-0.11,0.44-0.18c0.17-0.08,0.32-0.21,0.45-0.34c0.06-0.06,0.12-0.15,0.17-0.21
					c0.06-0.08,0.13-0.15,0.17-0.24c0.2-0.37,0.29-0.75,0.31-1.17c0-0.08,0-0.15-0.01-0.23c-0.02-0.16-0.04-0.32-0.06-0.48
					c-0.01-0.04-0.01-0.07-0.03-0.11c-0.1-0.32-0.22-0.54-0.45-0.79c-0.22-0.23-0.49-0.38-0.79-0.47c-0.15-0.05-0.33-0.07-0.49-0.06
					c-0.13,0.01-0.3,0.03-0.42,0.06c-0.02,0-0.05,0.01-0.07,0.01c-0.19,0.05-0.37,0.13-0.54,0.23c-0.17,0.09-0.32,0.22-0.46,0.34
					c-0.15,0.12-0.27,0.3-0.38,0.45c-0.04,0.05-0.08,0.11-0.11,0.17c-0.09,0.18-0.18,0.38-0.23,0.57c-0.03,0.16-0.05,0.32-0.07,0.48
					c0,0.04-0.01,0.08-0.01,0.12c0,0.04,0,0.08,0.01,0.12c0.02,0.16,0.04,0.33,0.07,0.49c0.05,0.2,0.14,0.37,0.27,0.51
					c0.11,0.16,0.25,0.29,0.42,0.39c0.17,0.11,0.36,0.17,0.56,0.18c0.2,0.04,0.4,0.04,0.6-0.03c0.12-0.05,0.24-0.1,0.36-0.15
					c0.23-0.13,0.4-0.31,0.54-0.54c0.05-0.12,0.1-0.24,0.15-0.36c0.07-0.27,0.07-0.53,0-0.8c-0.01-0.03-0.01-0.06-0.02-0.09
					c0.02,0.13,0.04,0.27,0.05,0.4c-0.01-0.08-0.01-0.16,0-0.24c-0.02,0.13-0.04,0.27-0.05,0.4c0.01-0.09,0.03-0.17,0.07-0.26
					c-0.05,0.12-0.1,0.24-0.15,0.36c0.03-0.08,0.08-0.15,0.13-0.21c-0.08,0.1-0.16,0.2-0.23,0.3c0.05-0.06,0.11-0.12,0.17-0.17
					c-0.1,0.08-0.2,0.16-0.3,0.23c0.06-0.05,0.13-0.09,0.21-0.12c-0.12,0.05-0.24,0.1-0.36,0.15c0.06-0.02,0.11-0.04,0.17-0.05
					c-0.13,0.02-0.27,0.04-0.4,0.05c0.03,0,0.06,0,0.09,0c-0.13-0.02-0.27-0.04-0.4-0.05c0.02,0,0.04,0.01,0.06,0.02
					c-0.12-0.05-0.24-0.1-0.36-0.15c0.02,0.01,0.03,0.02,0.05,0.03c-0.1-0.08-0.2-0.16-0.3-0.23c0.01,0.01,0.03,0.02,0.04,0.04
					c-0.08-0.1-0.16-0.2-0.23-0.3c0.02,0.03,0.03,0.05,0.05,0.08c-0.05-0.12-0.1-0.24-0.15-0.36c0.02,0.06,0.04,0.11,0.05,0.17
					c-0.02-0.13-0.04-0.27-0.05-0.4c0.02,0.14,0.02,0.28,0.01,0.42c0.02-0.13,0.04-0.27,0.05-0.4c-0.01,0.07-0.03,0.14-0.05,0.21
					c0.05-0.12,0.1-0.24,0.15-0.36c-0.02,0.06-0.06,0.11-0.09,0.16c0.08-0.1,0.16-0.2,0.23-0.3c-0.03,0.04-0.07,0.08-0.12,0.12
					c0.1-0.08,0.2-0.16,0.3-0.23c-0.03,0.02-0.07,0.04-0.11,0.06c0.12-0.05,0.24-0.1,0.36-0.15c-0.04,0.02-0.08,0.03-0.12,0.03
					c0.13-0.02,0.27-0.04,0.4-0.05c-0.04,0-0.09,0-0.13,0c0.13,0.02,0.27,0.04,0.4,0.05c-0.04-0.01-0.09-0.02-0.13-0.03
					c0.12,0.05,0.24,0.1,0.36,0.15c-0.05-0.02-0.09-0.05-0.13-0.08c0.1,0.08,0.2,0.16,0.3,0.23c-0.03-0.03-0.06-0.06-0.09-0.09
					c0.08,0.1,0.16,0.2,0.23,0.3c-0.03-0.04-0.06-0.09-0.08-0.13c0.05,0.12,0.1,0.24,0.15,0.36c-0.02-0.06-0.04-0.11-0.05-0.17
					c0.02,0.13,0.04,0.27,0.05,0.4c-0.01-0.05-0.01-0.1,0-0.15c-0.02,0.13-0.04,0.27-0.05,0.4c0.01-0.06,0.02-0.12,0.05-0.17
					c-0.05,0.12-0.1,0.24-0.15,0.36c0.02-0.05,0.05-0.09,0.08-0.14c-0.08,0.1-0.16,0.2-0.23,0.3c0.03-0.04,0.07-0.08,0.11-0.11
					c-0.1,0.08-0.2,0.16-0.3,0.23c0.04-0.03,0.09-0.06,0.13-0.08c-0.12,0.05-0.24,0.1-0.36,0.15c0.04-0.02,0.09-0.03,0.13-0.04
					c-0.13,0.02-0.27,0.04-0.4,0.05c0.04,0,0.08,0,0.13,0c-0.13-0.02-0.27-0.04-0.4-0.05c0.04,0.01,0.07,0.01,0.11,0.03
					c-0.12-0.05-0.24-0.1-0.36-0.15c0.03,0.01,0.05,0.03,0.08,0.04c-0.1-0.08-0.2-0.16-0.3-0.23c0.03,0.02,0.05,0.04,0.07,0.07
					c-0.08-0.1-0.16-0.2-0.23-0.3c0.02,0.03,0.04,0.06,0.05,0.09c-0.05-0.12-0.1-0.24-0.15-0.36c0.02,0.06,0.04,0.12,0.05,0.18
					c-0.02-0.13-0.04-0.27-0.05-0.4c0.01,0.08,0.01,0.16,0,0.25c0.02-0.13,0.04-0.27,0.05-0.4c-0.01,0.08-0.03,0.16-0.07,0.24
					c0.05-0.12,0.1-0.24,0.15-0.36c-0.03,0.07-0.07,0.13-0.11,0.19c0.08-0.1,0.16-0.2,0.23-0.3c-0.04,0.05-0.08,0.09-0.13,0.13
					c0.1-0.08,0.2-0.16,0.3-0.23c-0.05,0.04-0.1,0.07-0.16,0.09c0.12-0.05,0.24-0.1,0.36-0.15c-0.05,0.02-0.09,0.03-0.14,0.04
					c0.13-0.02,0.27-0.04,0.4-0.05c-0.05,0.01-0.09,0.01-0.14,0c0.13,0.02,0.27,0.04,0.4,0.05c-0.03-0.01-0.06-0.01-0.1-0.03
					c0.12,0.05,0.24,0.1,0.36,0.15c-0.02-0.01-0.05-0.02-0.07-0.04c0.1,0.08,0.2,0.16,0.3,0.23c-0.03-0.02-0.05-0.04-0.07-0.07
					c0.08,0.1,0.16,0.2,0.23,0.3c-0.02-0.03-0.04-0.05-0.05-0.09c0.05,0.12,0.1,0.24,0.15,0.36c-0.02-0.04-0.03-0.09-0.04-0.14
					c0.02,0.13,0.04,0.27,0.05,0.4c-0.01-0.06-0.01-0.12,0-0.18c-0.02,0.13-0.04,0.27-0.05,0.4c0.01-0.07,0.03-0.14,0.06-0.21
					c-0.05,0.12-0.1,0.24-0.15,0.36c0.03-0.08,0.08-0.15,0.13-0.22c-0.08,0.1-0.16,0.2-0.23,0.3c0.05-0.07,0.11-0.13,0.18-0.18
					c-0.1,0.08-0.2,0.16-0.3,0.23c0.07-0.05,0.14-0.1,0.22-0.13c-0.12,0.05-0.24,0.1-0.36,0.15c0.07-0.03,0.15-0.05,0.23-0.06
					c-0.13,0.02-0.27,0.04-0.4,0.05c0.05-0.01,0.1-0.01,0.15,0c-0.13-0.02-0.27-0.04-0.4-0.05c0.02,0,0.04,0.01,0.07,0.02
					c-0.12-0.05-0.24-0.1-0.36-0.15c0.02,0.01,0.04,0.02,0.05,0.03c-0.1-0.08-0.2-0.16-0.3-0.23c0.02,0.01,0.03,0.03,0.04,0.04
					c-0.08-0.1-0.16-0.2-0.23-0.3c0.02,0.02,0.03,0.05,0.04,0.07c-0.05-0.12-0.1-0.24-0.15-0.36c0.02,0.05,0.03,0.09,0.04,0.14
					c-0.02-0.13-0.04-0.27-0.05-0.4c0.01,0.1,0.01,0.2,0,0.3c0.02-0.13,0.04-0.27,0.05-0.4c-0.01,0.11-0.04,0.21-0.08,0.31
					c0.05-0.12,0.1-0.24,0.15-0.36c-0.02,0.05-0.05,0.1-0.08,0.15c0.08-0.1,0.16-0.2,0.23-0.3c-0.02,0.03-0.05,0.05-0.07,0.07
					c0.1-0.08,0.2-0.16,0.3-0.23c-0.02,0.02-0.05,0.03-0.07,0.04c0.12-0.05,0.24-0.1,0.36-0.15c-0.03,0.01-0.06,0.02-0.09,0.03
					c0.13-0.02,0.27-0.04,0.4-0.05c-0.03,0-0.05,0-0.08,0c0.13,0.02,0.27,0.04,0.4,0.05c-0.04-0.01-0.08-0.02-0.11-0.03
					c0.12,0.05,0.24,0.1,0.36,0.15c-0.04-0.02-0.08-0.04-0.12-0.07c0.1,0.08,0.2,0.16,0.3,0.23c-0.04-0.03-0.07-0.06-0.1-0.1
					c0.08,0.1,0.16,0.2,0.23,0.3c-0.03-0.04-0.06-0.09-0.08-0.14c0.05,0.12,0.1,0.24,0.15,0.36c-0.03-0.07-0.05-0.13-0.06-0.21
					c0.02,0.13,0.04,0.27,0.05,0.4c-0.01-0.06-0.01-0.13,0-0.19c-0.02,0.13-0.04,0.27-0.05,0.4c0.01-0.06,0.02-0.12,0.05-0.17
					c-0.05,0.12-0.1,0.24-0.15,0.36c0.02-0.05,0.05-0.09,0.08-0.13c-0.08,0.1-0.16,0.2-0.23,0.3c0.03-0.03,0.06-0.06,0.09-0.09
					c-0.1,0.08-0.2,0.16-0.3,0.23c0.03-0.02,0.06-0.04,0.09-0.06c-0.12,0.05-0.24,0.1-0.36,0.15c0.03-0.01,0.07-0.02,0.1-0.03
					c-0.13,0.02-0.27,0.04-0.4,0.05c0.04-0.01,0.09-0.01,0.13,0c-0.13-0.02-0.27-0.04-0.4-0.05c0.03,0.01,0.06,0.01,0.08,0.02
					c-0.12-0.05-0.24-0.1-0.36-0.15c0.03,0.01,0.05,0.03,0.07,0.04c-0.1-0.08-0.2-0.16-0.3-0.23c0.02,0.02,0.04,0.04,0.06,0.06
					c-0.08-0.1-0.16-0.2-0.23-0.3c0.03,0.03,0.04,0.07,0.06,0.1c-0.05-0.12-0.1-0.24-0.15-0.36c0.02,0.05,0.03,0.09,0.04,0.14
					c-0.02-0.13-0.04-0.27-0.05-0.4c0,0.05,0,0.1,0,0.14c0.02-0.13,0.04-0.27,0.05-0.4c-0.01,0.06-0.02,0.12-0.05,0.18
					c0.05-0.12,0.1-0.24,0.15-0.36c-0.02,0.06-0.05,0.11-0.09,0.16c0.08-0.1,0.16-0.2,0.23-0.3c-0.03,0.04-0.07,0.08-0.11,0.11
					c0.1-0.08,0.2-0.16,0.3-0.23c-0.04,0.03-0.09,0.06-0.14,0.08c0.12-0.05,0.24-0.1,0.36-0.15c-0.04,0.01-0.08,0.03-0.12,0.03
					c0.13-0.02,0.27-0.04,0.4-0.05c-0.04,0-0.07,0.01-0.11,0c0.13,0.02,0.27,0.04,0.4,0.05c-0.03,0-0.06-0.01-0.09-0.02
					c0.12,0.05,0.24,0.1,0.36,0.15c-0.02-0.01-0.04-0.02-0.06-0.03c0.1,0.08,0.2,0.16,0.3,0.23c-0.02-0.01-0.03-0.03-0.05-0.04
					c0.08,0.1,0.16,0.2,0.23,0.3c-0.01-0.02-0.02-0.03-0.03-0.05c0.05,0.12,0.1,0.24,0.15,0.36c-0.01-0.02-0.01-0.04-0.02-0.06
					c0.02,0.13,0.04,0.27,0.05,0.4c0-0.01,0-0.03,0-0.04c-0.02,0.13-0.04,0.27-0.05,0.4c0.01-0.03,0.01-0.06,0.03-0.09
					c-0.05,0.12-0.1,0.24-0.15,0.36c0.07-0.16,0.17-0.31,0.26-0.45c0.11-0.17,0.17-0.36,0.18-0.56c0.04-0.2,0.04-0.4-0.03-0.6
					c-0.05-0.2-0.14-0.37-0.27-0.51c-0.11-0.16-0.25-0.29-0.42-0.39c-0.12-0.05-0.24-0.1-0.36-0.15c-0.27-0.07-0.53-0.07-0.8,0
					c-0.12,0.05-0.24,0.1-0.36,0.15C138.6,53.77,138.42,53.95,138.29,54.17L138.29,54.17z"/>
			</g>
		</g>
		<g>
			<g>
				<path d="M71.14,90.32c0.51,4.87,2.94,8.96,6.79,11.96c3.78,2.94,8.39,5.06,12.98,6.36c4.65,1.32,9.58,1.67,14.32,0.6
					c4.77-1.08,8.77-3.66,12.05-7.24c3.38-3.69,7.56-8.19,7.23-13.56c-0.12-1.92-3.12-1.93-3,0c0.25,4.16-2.94,7.55-5.49,10.48
					c-2.79,3.19-5.89,5.78-10.01,7.02c-8.14,2.47-17.05-0.16-24.07-4.5c-4.07-2.52-7.29-6.19-7.8-11.11
					C73.94,88.42,70.94,88.4,71.14,90.32L71.14,90.32z"/>
			</g>
		</g>
		<g>
			<g>
				<path d="M140.49,52.78c-1.11,0.34-1.98,1.22-2.32,2.33c-0.21,0.69-0.17,1.49,0.19,2.12c0.33,0.57,0.94,1,1.58,1.15
					c0.78,0.18,1.58,0.08,2.22-0.41c0.51-0.4,0.9-1,1.01-1.64c0.12-0.7,0.06-1.45-0.34-2.07c-0.38-0.59-0.93-1.02-1.6-1.22
					c-0.72-0.22-1.45-0.06-2.12,0.25c-0.28,0.13-0.55,0.32-0.78,0.53c-0.31,0.3-0.49,0.67-0.62,1.07c-0.2,0.64-0.22,1.3-0.05,1.95
					c0.22,0.85,0.84,1.43,1.64,1.73c0.61,0.23,1.27,0.16,1.89,0.05c0.47-0.08,0.96-0.24,1.36-0.5c0.62-0.4,1.05-0.96,1.28-1.66
					c0.19-0.58,0.18-1.31-0.03-1.89c-0.17-0.46-0.35-0.79-0.66-1.16c-0.29-0.35-0.68-0.56-1.09-0.72c-0.6-0.23-1.37-0.2-1.98-0.04
					c-0.76,0.2-1.36,0.66-1.8,1.29c-0.45,0.63-0.53,1.45-0.38,2.18c0.07,0.35,0.38,0.72,0.69,0.9c0.32,0.19,0.8,0.27,1.16,0.15
					c0.36-0.12,0.71-0.34,0.9-0.69c0.2-0.37,0.24-0.74,0.15-1.16c-0.01-0.03-0.01-0.07-0.02-0.1c0.02,0.13,0.04,0.27,0.05,0.4
					c-0.01-0.1-0.01-0.2,0-0.3c-0.02,0.13-0.04,0.27-0.05,0.4c0.02-0.12,0.05-0.23,0.09-0.34c-0.05,0.12-0.1,0.24-0.15,0.36
					c0.05-0.13,0.12-0.24,0.2-0.35c-0.08,0.1-0.16,0.2-0.23,0.3c0.08-0.09,0.16-0.18,0.26-0.25c-0.1,0.08-0.2,0.16-0.3,0.23
					c0.12-0.09,0.24-0.16,0.37-0.21c-0.12,0.05-0.24,0.1-0.36,0.15c0.15-0.06,0.31-0.1,0.47-0.13c-0.13,0.02-0.27,0.04-0.4,0.05
					c0.2-0.03,0.4-0.03,0.6,0c-0.13-0.02-0.27-0.04-0.4-0.05c0.13,0.02,0.25,0.05,0.37,0.1c-0.12-0.05-0.24-0.1-0.36-0.15
					c0.08,0.04,0.16,0.08,0.23,0.14c-0.1-0.08-0.2-0.16-0.3-0.23c0.07,0.06,0.13,0.13,0.19,0.2c-0.08-0.1-0.16-0.2-0.23-0.3
					c0.09,0.12,0.16,0.26,0.22,0.4c-0.05-0.12-0.1-0.24-0.15-0.36c0.06,0.15,0.1,0.29,0.12,0.45c-0.02-0.13-0.04-0.27-0.05-0.4
					c0.02,0.15,0.02,0.3,0,0.46c0.02-0.13,0.04-0.27,0.05-0.4c-0.02,0.13-0.05,0.25-0.1,0.37c0.05-0.12,0.1-0.24,0.15-0.36
					c-0.05,0.12-0.11,0.23-0.19,0.33c0.08-0.1,0.16-0.2,0.23-0.3c-0.08,0.09-0.16,0.18-0.26,0.25c0.1-0.08,0.2-0.16,0.3-0.23
					c-0.12,0.09-0.26,0.17-0.4,0.23c0.12-0.05,0.24-0.1,0.36-0.15c-0.28,0.12-0.57,0.18-0.87,0.22c0.13-0.02,0.27-0.04,0.4-0.05
					c-0.2,0.02-0.4,0.03-0.61,0.01c0.13,0.02,0.27,0.04,0.4,0.05c-0.11-0.02-0.21-0.04-0.31-0.08c0.12,0.05,0.24,0.1,0.36,0.15
					c-0.09-0.04-0.18-0.09-0.26-0.15c0.1,0.08,0.2,0.16,0.3,0.23c-0.07-0.05-0.12-0.11-0.17-0.18c0.08,0.1,0.16,0.2,0.23,0.3
					c-0.04-0.06-0.07-0.12-0.1-0.19c0.05,0.12,0.1,0.24,0.15,0.36c-0.05-0.13-0.08-0.26-0.1-0.4c0.02,0.13,0.04,0.27,0.05,0.4
					c-0.02-0.16-0.02-0.32-0.01-0.49c-0.02,0.13-0.04,0.27-0.05,0.4c0.03-0.2,0.08-0.39,0.15-0.58c-0.05,0.12-0.1,0.24-0.15,0.36
					c0.03-0.07,0.06-0.12,0.11-0.18c-0.08,0.1-0.16,0.2-0.23,0.3c0.05-0.06,0.1-0.1,0.16-0.15c-0.1,0.08-0.2,0.16-0.3,0.23
					c0.14-0.1,0.29-0.18,0.44-0.25c-0.12,0.05-0.24,0.1-0.36,0.15c0.13-0.05,0.25-0.09,0.39-0.11c-0.13,0.02-0.27,0.04-0.4,0.05
					c0.11-0.01,0.22-0.02,0.33,0c-0.13-0.02-0.27-0.04-0.4-0.05c0.11,0.02,0.22,0.05,0.33,0.09c-0.12-0.05-0.24-0.1-0.36-0.15
					c0.11,0.05,0.2,0.11,0.29,0.18c-0.1-0.08-0.2-0.16-0.3-0.23c0.08,0.06,0.14,0.13,0.21,0.21c-0.08-0.1-0.16-0.2-0.23-0.3
					c0.07,0.09,0.13,0.19,0.17,0.29c-0.05-0.12-0.1-0.24-0.15-0.36c0.05,0.12,0.08,0.23,0.09,0.35c-0.02-0.13-0.04-0.27-0.05-0.4
					c0.01,0.12,0.01,0.24-0.01,0.37c0.02-0.13,0.04-0.27,0.05-0.4c-0.02,0.12-0.05,0.24-0.1,0.35c0.05-0.12,0.1-0.24,0.15-0.36
					c-0.05,0.11-0.11,0.22-0.18,0.32c0.08-0.1,0.16-0.2,0.23-0.3c-0.06,0.07-0.12,0.13-0.19,0.19c0.1-0.08,0.2-0.16,0.3-0.23
					c-0.06,0.04-0.12,0.08-0.19,0.11c0.12-0.05,0.24-0.1,0.36-0.15c-0.07,0.03-0.14,0.04-0.21,0.06c0.13-0.02,0.27-0.04,0.4-0.05
					c-0.12,0.02-0.25,0.02-0.37,0c0.13,0.02,0.27,0.04,0.4,0.05c-0.13-0.02-0.25-0.05-0.37-0.1c0.12,0.05,0.24,0.1,0.36,0.15
					c-0.09-0.04-0.17-0.09-0.24-0.14c0.1,0.08,0.2,0.16,0.3,0.23c-0.06-0.05-0.11-0.1-0.16-0.17c0.08,0.1,0.16,0.2,0.23,0.3
					c-0.04-0.05-0.07-0.1-0.09-0.16c0.05,0.12,0.1,0.24,0.15,0.36c-0.03-0.07-0.05-0.14-0.06-0.22c0.02,0.13,0.04,0.27,0.05,0.4
					c-0.01-0.13-0.01-0.25,0-0.38c-0.02,0.13-0.04,0.27-0.05,0.4c0.02-0.16,0.06-0.31,0.12-0.46c-0.05,0.12-0.1,0.24-0.15,0.36
					c0.07-0.16,0.16-0.31,0.27-0.46c-0.08,0.1-0.16,0.2-0.23,0.3c0.1-0.13,0.21-0.24,0.34-0.34c-0.1,0.08-0.2,0.16-0.3,0.23
					c0.13-0.1,0.27-0.18,0.41-0.24c-0.12,0.05-0.24,0.1-0.36,0.15c0.06-0.02,0.12-0.05,0.18-0.06c0.37-0.11,0.7-0.35,0.9-0.69
					c0.19-0.32,0.27-0.8,0.15-1.16c-0.12-0.36-0.34-0.71-0.69-0.9C141.29,52.74,140.88,52.66,140.49,52.78L140.49,52.78z"/>
			</g>
		</g>
		<g>
			<g>
				<path d="M64.29,56.69c-0.01-0.58-0.08-1.19-0.41-1.69c-0.42-0.63-1.12-1.1-1.91-1.04c-0.69,0.06-1.32,0.41-1.82,0.88
					c-0.4,0.38-0.69,0.98-0.85,1.49c-0.18,0.58-0.16,1.18-0.06,1.77c0.1,0.55,0.36,1.13,0.78,1.51c1.02,0.94,2.61,0.93,3.64,0.01
					c0.86-0.77,0.92-2.1,0.67-3.15c-0.12-0.52-0.41-1.07-0.81-1.44c-0.43-0.39-0.91-0.62-1.45-0.8c-0.62-0.2-1.26-0.26-1.87-0.01
					c-0.7,0.3-1.15,0.95-1.37,1.67c-0.19,0.62-0.11,1.24-0.02,1.87c0.08,0.54,0.24,1.02,0.57,1.46c0.41,0.52,0.96,0.84,1.57,1.06
					c0.68,0.24,1.41,0.15,2.06-0.13c0.44-0.19,0.78-0.47,1.04-0.88c0.17-0.27,0.28-0.58,0.39-0.89c0.07-0.22,0.13-0.44,0.17-0.66
					c0.05-0.29,0.07-0.5,0.03-0.78c-0.04-0.29-0.16-0.53-0.27-0.79c0.05,0.12,0.1,0.24,0.15,0.36c-0.05-0.15-0.06-0.31-0.09-0.46
					c-0.05-0.24-0.16-0.48-0.29-0.68c-0.22-0.32-0.46-0.54-0.75-0.77c-0.37-0.28-0.7-0.59-1.13-0.77c-0.67-0.28-1.34-0.15-1.97,0.16
					c-0.41,0.2-0.78,0.5-1.04,0.89c-0.29,0.44-0.34,0.98-0.31,1.5c0.02,0.38,0.06,0.8,0.2,1.16c0.17,0.45,0.4,0.91,0.79,1.22
					c0.32,0.26,0.63,0.44,1.06,0.44c0.37,0,0.81-0.16,1.06-0.44c0.26-0.29,0.46-0.66,0.44-1.06c-0.02-0.37-0.14-0.82-0.44-1.06
					c-0.08-0.06-0.14-0.13-0.2-0.2c0.08,0.1,0.16,0.2,0.23,0.3c-0.07-0.09-0.13-0.19-0.18-0.3c0.05,0.12,0.1,0.24,0.15,0.36
					c-0.07-0.18-0.12-0.36-0.14-0.55c0.02,0.13,0.04,0.27,0.05,0.4c-0.03-0.24-0.04-0.49-0.02-0.73c-0.02,0.13-0.04,0.27-0.05,0.4
					c0.01-0.07,0.03-0.12,0.05-0.19c-0.05,0.12-0.1,0.24-0.15,0.36c0.01-0.03,0.03-0.06,0.05-0.09c-0.08,0.1-0.16,0.2-0.23,0.3
					c0.05-0.06,0.09-0.1,0.15-0.15c-0.1,0.08-0.2,0.16-0.3,0.23c0.13-0.09,0.27-0.17,0.41-0.23c-0.12,0.05-0.24,0.1-0.36,0.15
					c0.08-0.03,0.17-0.06,0.26-0.08c-0.13,0.02-0.27,0.04-0.4,0.05c0.07-0.01,0.13-0.01,0.2,0c-0.13-0.02-0.27-0.04-0.4-0.05
					c0.04,0.01,0.08,0.02,0.12,0.03c-0.12-0.05-0.24-0.1-0.36-0.15c0.11,0.05,0.21,0.12,0.31,0.19c-0.1-0.08-0.2-0.16-0.3-0.23
					c0.28,0.22,0.59,0.42,0.83,0.69c-0.08-0.1-0.16-0.2-0.23-0.3c0.05,0.06,0.08,0.12,0.12,0.19c-0.05-0.12-0.1-0.24-0.15-0.36
					c0.06,0.13,0.07,0.27,0.09,0.41c0.04,0.25,0.15,0.47,0.26,0.7c-0.05-0.12-0.1-0.24-0.15-0.36c0.02,0.04,0.03,0.08,0.04,0.12
					c-0.02-0.13-0.04-0.27-0.05-0.4c0.01,0.06,0.01,0.12,0,0.18c0.02-0.13,0.04-0.27,0.05-0.4c-0.06,0.32-0.15,0.63-0.27,0.92
					c0.05-0.12,0.1-0.24,0.15-0.36c-0.05,0.11-0.1,0.22-0.17,0.32c0.08-0.1,0.16-0.2,0.23-0.3c-0.04,0.05-0.08,0.09-0.13,0.13
					c0.1-0.08,0.2-0.16,0.3-0.23c-0.05,0.04-0.11,0.07-0.17,0.09c0.12-0.05,0.24-0.1,0.36-0.15c-0.16,0.06-0.33,0.11-0.5,0.14
					c0.13-0.02,0.27-0.04,0.4-0.05c-0.09,0.01-0.18,0.01-0.27,0c0.13,0.02,0.27,0.04,0.4,0.05c-0.17-0.03-0.32-0.08-0.48-0.15
					c0.12,0.05,0.24,0.1,0.36,0.15c-0.14-0.06-0.27-0.13-0.4-0.22c0.1,0.08,0.2,0.16,0.3,0.23c-0.09-0.07-0.17-0.15-0.24-0.23
					c0.08,0.1,0.16,0.2,0.23,0.3c-0.06-0.08-0.11-0.16-0.15-0.25c0.05,0.12,0.1,0.24,0.15,0.36c-0.1-0.25-0.13-0.51-0.16-0.76
					c0.02,0.13,0.04,0.27,0.05,0.4c-0.03-0.24-0.05-0.49-0.03-0.73c-0.02,0.13-0.04,0.27-0.05,0.4c0.02-0.16,0.06-0.3,0.12-0.45
					c-0.05,0.12-0.1,0.24-0.15,0.36c0.05-0.1,0.1-0.19,0.16-0.28c-0.08,0.1-0.16,0.2-0.23,0.3c0.05-0.06,0.1-0.12,0.17-0.17
					c-0.1,0.08-0.2,0.16-0.3,0.23c0.03-0.02,0.07-0.04,0.1-0.06c-0.12,0.05-0.24,0.1-0.36,0.15c0.06-0.02,0.11-0.04,0.17-0.05
					c-0.13,0.02-0.27,0.04-0.4,0.05c0.08-0.01,0.16,0,0.24,0.01c-0.13-0.02-0.27-0.04-0.4-0.05c0.26,0.04,0.51,0.12,0.75,0.22
					c-0.12-0.05-0.24-0.1-0.36-0.15c0.16,0.07,0.31,0.15,0.45,0.26c-0.1-0.08-0.2-0.16-0.3-0.23c0.08,0.06,0.14,0.13,0.2,0.2
					c-0.08-0.1-0.16-0.2-0.23-0.3c0.08,0.11,0.15,0.22,0.2,0.35c-0.05-0.12-0.1-0.24-0.15-0.36c0.06,0.17,0.1,0.34,0.13,0.51
					c-0.02-0.13-0.04-0.27-0.05-0.4c0.03,0.26,0.04,0.51,0.02,0.77c0.02-0.13,0.04-0.27,0.05-0.4c-0.02,0.12-0.04,0.23-0.09,0.34
					c0.05-0.12,0.1-0.24,0.15-0.36c-0.03,0.07-0.07,0.14-0.11,0.2c0.08-0.1,0.16-0.2,0.23-0.3c-0.05,0.06-0.1,0.12-0.16,0.17
					c0.1-0.08,0.2-0.16,0.3-0.23c-0.08,0.06-0.16,0.11-0.25,0.15c0.12-0.05,0.24-0.1,0.36-0.15c-0.11,0.04-0.22,0.07-0.33,0.09
					c0.13-0.02,0.27-0.04,0.4-0.05c-0.11,0.01-0.22,0.01-0.34,0c0.13,0.02,0.27,0.04,0.4,0.05c-0.09-0.02-0.18-0.04-0.27-0.07
					c0.12,0.05,0.24,0.1,0.36,0.15c-0.09-0.04-0.16-0.08-0.24-0.14c0.1,0.08,0.2,0.16,0.3,0.23c-0.06-0.05-0.11-0.1-0.16-0.16
					c0.08,0.1,0.16,0.2,0.23,0.3c-0.06-0.08-0.11-0.17-0.15-0.26c0.05,0.12,0.1,0.24,0.15,0.36c-0.07-0.18-0.12-0.36-0.15-0.55
					c0.02,0.13,0.04,0.27,0.05,0.4c-0.02-0.2-0.03-0.39,0-0.59c-0.02,0.13-0.04,0.27-0.05,0.4c0.03-0.17,0.07-0.34,0.14-0.5
					c-0.05,0.12-0.1,0.24-0.15,0.36c0.08-0.19,0.18-0.37,0.29-0.54c-0.08,0.1-0.16,0.2-0.23,0.3c0.07-0.08,0.14-0.15,0.22-0.21
					c-0.1,0.08-0.2,0.16-0.3,0.23c0.15-0.11,0.3-0.21,0.47-0.29c-0.12,0.05-0.24,0.1-0.36,0.15c0.06-0.02,0.11-0.04,0.17-0.05
					c-0.13,0.02-0.27,0.04-0.4,0.05c0.06-0.01,0.11-0.01,0.17,0c-0.13-0.02-0.27-0.04-0.4-0.05c0.05,0.01,0.1,0.02,0.15,0.04
					c-0.12-0.05-0.24-0.1-0.36-0.15c0.05,0.02,0.09,0.05,0.13,0.08c-0.1-0.08-0.2-0.16-0.3-0.23c0.05,0.05,0.1,0.1,0.15,0.15
					c-0.08-0.1-0.16-0.2-0.23-0.3c0.04,0.06,0.08,0.12,0.1,0.18c-0.05-0.12-0.1-0.24-0.15-0.36c0.04,0.1,0.07,0.21,0.08,0.31
					c-0.02-0.13-0.04-0.27-0.05-0.4c0.02,0.15,0.03,0.31,0.03,0.46c0.01,0.39,0.16,0.78,0.44,1.06c0.26,0.26,0.69,0.46,1.06,0.44
					C63.59,58.16,64.31,57.53,64.29,56.69L64.29,56.69z"/>
			</g>
		</g>
	</g>
	<g id="_x33_" class="st0">
		<g class="st1">
			<g>
				<path d="M55.73,49.08c11.01,3,22.72,2.94,33.7-0.18c1.85-0.53,1.07-3.42-0.8-2.89c-10.48,2.97-21.6,3.04-32.11,0.18
					C54.66,45.68,53.87,48.57,55.73,49.08L55.73,49.08z"/>
			</g>
		</g>
		<g class="st1">
			<g>
				<path d="M113.37,48.16c12.22,4.24,25.74,4.32,38.01,0.23c1.82-0.61,1.04-3.51-0.8-2.89c-11.81,3.94-24.65,3.86-36.41-0.23
					C112.34,44.63,111.55,47.53,113.37,48.16L113.37,48.16z"/>
			</g>
		</g>
		<g class="st1">
			<g>
				<path d="M44.59,79.6c13.04,7.31,27.62,11.7,42.53,12.85c14.65,1.12,29.54-1.04,43.29-6.2c7.71-2.89,15.06-6.69,21.87-11.33
					c1.58-1.08,0.09-3.68-1.51-2.59c-23.88,16.31-54.12,21.52-82.05,13.94c-7.89-2.14-15.48-5.25-22.61-9.24
					C44.42,76.06,42.91,78.65,44.59,79.6L44.59,79.6z"/>
			</g>
		</g>
	</g>
	<g id="_x32_" class="st0">
		<g class="st1">
			<g>
				<path d="M61.86,49.14c-0.03,0-0.05,0-0.08,0c-0.14,0.01-0.3,0.03-0.44,0.06c-0.03,0-0.05,0.01-0.08,0.02
					c-0.14,0.05-0.28,0.11-0.41,0.17c-0.15,0.07-0.28,0.19-0.41,0.3c-0.04,0.03-0.08,0.07-0.11,0.11c-0.09,0.11-0.23,0.27-0.31,0.42
					c-0.06,0.13-0.12,0.27-0.17,0.4c-0.01,0.03-0.02,0.06-0.02,0.09c-0.03,0.14-0.05,0.3-0.06,0.44c0,0.03,0,0.05,0,0.08
					c0,0.08,0.02,0.18,0.03,0.26c0.01,0.09,0.02,0.19,0.04,0.28c0.06,0.21,0.15,0.44,0.28,0.62c0.1,0.13,0.2,0.28,0.32,0.4
					c0.11,0.1,0.23,0.19,0.35,0.27c0.02,0.02,0.04,0.03,0.07,0.05c0.14,0.09,0.31,0.15,0.47,0.21c0.04,0.02,0.09,0.03,0.13,0.04
					c0.17,0.03,0.34,0.06,0.52,0.06c0.17,0,0.35-0.03,0.52-0.06c0.21-0.03,0.41-0.13,0.6-0.22c0.19-0.09,0.36-0.23,0.52-0.37
					c0.16-0.13,0.29-0.32,0.41-0.48c0.03-0.04,0.05-0.07,0.07-0.11c0.08-0.15,0.14-0.31,0.2-0.47c0.02-0.04,0.03-0.09,0.03-0.13
					c0.03-0.17,0.07-0.35,0.06-0.52c0-0.02,0-0.04,0-0.06c-0.01-0.14-0.03-0.3-0.06-0.45c-0.01-0.04-0.02-0.08-0.04-0.13
					c-0.06-0.15-0.12-0.31-0.19-0.45c-0.08-0.14-0.19-0.27-0.3-0.4c-0.13-0.16-0.31-0.28-0.47-0.4c-0.18-0.13-0.4-0.21-0.6-0.28
					c-0.21-0.08-0.44-0.09-0.65-0.11c-0.05,0-0.09-0.01-0.14,0c-0.15,0.01-0.3,0.04-0.45,0.06c-0.02,0-0.05,0.01-0.07,0.01
					c-0.16,0.04-0.32,0.12-0.47,0.19c-0.05,0.02-0.09,0.04-0.13,0.07c-0.17,0.09-0.32,0.22-0.42,0.39
					c-0.13,0.14-0.22,0.31-0.27,0.51c-0.06,0.2-0.07,0.4-0.03,0.6c0.01,0.2,0.07,0.39,0.18,0.56c0.21,0.32,0.51,0.6,0.9,0.69
					c0.13,0.02,0.27,0.04,0.4,0.05c0.27,0,0.52-0.07,0.76-0.2c0.04-0.03,0.08-0.05,0.13-0.07c-0.12,0.05-0.24,0.1-0.36,0.15
					c0.06-0.03,0.13-0.04,0.2-0.05c-0.13,0.02-0.27,0.04-0.4,0.05c0.07-0.01,0.15-0.01,0.22,0c-0.13-0.02-0.27-0.04-0.4-0.05
					c0.08,0.01,0.16,0.03,0.24,0.06c-0.12-0.05-0.24-0.1-0.36-0.15c0.08,0.03,0.16,0.08,0.23,0.13c-0.1-0.08-0.2-0.16-0.3-0.23
					c0.06,0.05,0.11,0.1,0.16,0.16c-0.08-0.1-0.16-0.2-0.23-0.3c0.04,0.05,0.07,0.11,0.1,0.18c-0.05-0.12-0.1-0.24-0.15-0.36
					c0.02,0.05,0.04,0.11,0.04,0.16c-0.02-0.13-0.04-0.27-0.05-0.4c0.01,0.07,0.01,0.13,0,0.2c0.02-0.13,0.04-0.27,0.05-0.4
					c-0.01,0.07-0.03,0.13-0.05,0.19c0.05-0.12,0.1-0.24,0.15-0.36c-0.03,0.07-0.07,0.13-0.11,0.19c0.08-0.1,0.16-0.2,0.23-0.3
					c-0.05,0.06-0.11,0.12-0.17,0.17c0.1-0.08,0.2-0.16,0.3-0.23c-0.07,0.05-0.13,0.09-0.21,0.12c0.12-0.05,0.24-0.1,0.36-0.15
					c-0.07,0.03-0.15,0.05-0.23,0.06c0.13-0.02,0.27-0.04,0.4-0.05c-0.07,0.01-0.13,0.01-0.2,0c0.13,0.02,0.27,0.04,0.4,0.05
					c-0.07-0.01-0.13-0.03-0.19-0.05c0.12,0.05,0.24,0.1,0.36,0.15c-0.06-0.03-0.11-0.06-0.16-0.09c0.1,0.08,0.2,0.16,0.3,0.23
					c-0.05-0.04-0.09-0.08-0.13-0.13c0.08,0.1,0.16,0.2,0.23,0.3c-0.04-0.06-0.08-0.12-0.11-0.18c0.05,0.12,0.1,0.24,0.15,0.36
					c-0.02-0.05-0.03-0.1-0.04-0.16c0.02,0.13,0.04,0.27,0.05,0.4c-0.01-0.05-0.01-0.11,0-0.16c-0.02,0.13-0.04,0.27-0.05,0.4
					c0.01-0.05,0.02-0.09,0.04-0.13c-0.05,0.12-0.1,0.24-0.15,0.36c0.02-0.05,0.05-0.09,0.08-0.14c-0.08,0.1-0.16,0.2-0.23,0.3
					c0.03-0.04,0.07-0.08,0.11-0.11c-0.1,0.08-0.2,0.16-0.3,0.23c0.04-0.03,0.08-0.05,0.12-0.07c-0.12,0.05-0.24,0.1-0.36,0.15
					c0.04-0.02,0.08-0.03,0.13-0.04c-0.13,0.02-0.27,0.04-0.4,0.05c0.04,0,0.07,0,0.11,0c0.21,0.01,0.4-0.04,0.58-0.13
					c0.19-0.06,0.35-0.16,0.48-0.31c0.15-0.14,0.25-0.3,0.31-0.48c0.09-0.18,0.14-0.37,0.13-0.58c-0.02-0.13-0.04-0.27-0.05-0.4
					c-0.07-0.25-0.2-0.47-0.39-0.66c-0.1-0.08-0.2-0.16-0.3-0.23C62.38,49.21,62.13,49.14,61.86,49.14L61.86,49.14z"/>
			</g>
		</g>
		<g class="st1">
			<g>
				<path d="M139.56,49.74c0.03,0.2,0.12,0.4,0.22,0.57c0.08,0.13,0.19,0.26,0.29,0.38c0.03,0.03,0.06,0.06,0.09,0.08
					c0.12,0.1,0.25,0.21,0.38,0.29c0.14,0.08,0.3,0.14,0.45,0.19c0.2,0.08,0.41,0.09,0.62,0.11c0.21,0.02,0.42-0.02,0.63-0.05
					c0.2-0.03,0.4-0.13,0.58-0.21c0.03-0.02,0.06-0.03,0.09-0.05c0.07-0.04,0.13-0.1,0.19-0.15c0.06-0.05,0.14-0.1,0.2-0.15
					c0.12-0.11,0.21-0.25,0.3-0.38c0.03-0.04,0.05-0.08,0.07-0.12c0.07-0.15,0.15-0.31,0.19-0.48c0.02-0.08,0.03-0.18,0.04-0.26
					c0.01-0.09,0.03-0.18,0.03-0.27c0-0.17-0.04-0.37-0.06-0.52c-0.01-0.05-0.02-0.1-0.04-0.15c-0.05-0.16-0.12-0.32-0.2-0.47
					c-0.02-0.04-0.05-0.09-0.08-0.13c-0.13-0.18-0.26-0.37-0.43-0.51c-0.12-0.1-0.26-0.22-0.41-0.31c-0.15-0.09-0.32-0.15-0.48-0.21
					c-0.21-0.08-0.45-0.11-0.67-0.11c-0.17,0-0.35,0.03-0.52,0.06c-0.06,0.01-0.11,0.02-0.16,0.04c-0.2,0.07-0.42,0.15-0.59,0.29
					c-0.14,0.11-0.29,0.21-0.41,0.33c-0.12,0.13-0.23,0.28-0.33,0.42c-0.14,0.19-0.23,0.44-0.3,0.66c-0.08,0.23-0.1,0.48-0.11,0.72
					c0,0.12,0.02,0.24,0.03,0.36c0.02,0.12,0.03,0.25,0.06,0.37c0.11,0.37,0.35,0.7,0.69,0.9c0.17,0.11,0.36,0.17,0.56,0.18
					c0.2,0.04,0.4,0.04,0.6-0.03c0.36-0.12,0.71-0.34,0.9-0.69c0.19-0.35,0.27-0.77,0.15-1.16c-0.02-0.06-0.03-0.11-0.04-0.17
					c0.02,0.13,0.04,0.27,0.05,0.4c-0.01-0.09-0.01-0.17,0-0.26c-0.02,0.13-0.04,0.27-0.05,0.4c0.01-0.1,0.04-0.2,0.08-0.29
					c-0.05,0.12-0.1,0.24-0.15,0.36c0.04-0.09,0.09-0.18,0.15-0.26c-0.08,0.1-0.16,0.2-0.23,0.3c0.05-0.07,0.11-0.13,0.18-0.18
					c-0.1,0.08-0.2,0.16-0.3,0.23c0.07-0.05,0.14-0.09,0.22-0.13c-0.12,0.05-0.24,0.1-0.36,0.15c0.07-0.03,0.13-0.04,0.2-0.05
					c-0.13,0.02-0.27,0.04-0.4,0.05c0.06-0.01,0.13-0.01,0.19,0c-0.13-0.02-0.27-0.04-0.4-0.05c0.07,0.01,0.14,0.03,0.2,0.06
					c-0.12-0.05-0.24-0.1-0.36-0.15c0.07,0.03,0.14,0.07,0.2,0.12c-0.1-0.08-0.2-0.16-0.3-0.23c0.07,0.05,0.13,0.11,0.18,0.18
					c-0.08-0.1-0.16-0.2-0.23-0.3c0.05,0.07,0.09,0.14,0.13,0.22c-0.05-0.12-0.1-0.24-0.15-0.36c0.03,0.07,0.05,0.14,0.06,0.22
					c-0.02-0.13-0.04-0.27-0.05-0.4c0.01,0.06,0.01,0.12,0,0.18c0.02-0.13,0.04-0.27,0.05-0.4c-0.01,0.05-0.02,0.11-0.04,0.16
					c0.05-0.12,0.1-0.24,0.15-0.36c-0.02,0.05-0.05,0.1-0.08,0.14c0.08-0.1,0.16-0.2,0.23-0.3c-0.03,0.04-0.07,0.07-0.11,0.1
					c0.1-0.08,0.2-0.16,0.3-0.23c-0.04,0.03-0.09,0.06-0.14,0.08c0.12-0.05,0.24-0.1,0.36-0.15c-0.07,0.03-0.14,0.05-0.21,0.06
					c0.13-0.02,0.27-0.04,0.4-0.05c-0.08,0.01-0.16,0.01-0.24,0c0.13,0.02,0.27,0.04,0.4,0.05c-0.07-0.01-0.14-0.03-0.21-0.06
					c0.12,0.05,0.24,0.1,0.36,0.15c-0.06-0.03-0.12-0.06-0.17-0.1c0.1,0.08,0.2,0.16,0.3,0.23c-0.04-0.03-0.08-0.07-0.11-0.11
					c0.08,0.1,0.16,0.2,0.23,0.3c-0.03-0.03-0.05-0.07-0.06-0.11c0.05,0.12,0.1,0.24,0.15,0.36c-0.02-0.05-0.03-0.09-0.04-0.14
					c-0.05-0.2-0.14-0.37-0.27-0.51c-0.11-0.16-0.25-0.29-0.42-0.39c-0.17-0.11-0.36-0.17-0.56-0.18c-0.2-0.04-0.4-0.04-0.6,0.03
					c-0.36,0.12-0.71,0.34-0.9,0.69c-0.05,0.12-0.1,0.24-0.15,0.36C139.49,49.21,139.49,49.47,139.56,49.74L139.56,49.74z"/>
			</g>
		</g>
		<g class="st1">
			<g>
				<path d="M44.16,90.6c27.82-2.04,55.71-3.07,83.6-3.08c7.8,0,15.61,0.07,23.41,0.23c1.93,0.04,1.93-2.96,0-3
					c-27.89-0.55-55.79-0.1-83.64,1.38c-7.79,0.41-15.58,0.91-23.36,1.48C42.25,87.74,42.23,90.74,44.16,90.6L44.16,90.6z"/>
			</g>
		</g>
	</g>
	<g id="_x31__1_" class="st0">
		<g class="st1">
			<g>
				<path d="M72.5,45.39c-3.31-0.66-7.8-0.26-10.16,2.48c-2.27,2.64-1.6,6.68,0.85,8.95c2.8,2.59,6.7,2.83,10.29,2.26
					c1.6-0.25,3.24-0.8,4.28-2.11c1.07-1.36,1.19-3.14,1.05-4.81c-0.16-1.88-0.69-3.77-2.28-4.94c-1.49-1.09-3.35-0.97-5.02-1.58
					c-0.76-0.28-1.64,0.31-1.85,1.05c-0.23,0.84,0.28,1.57,1.05,1.85c1.12,0.41,2.33,0.43,3.45,0.81c0.96,0.33,1.33,1.11,1.53,2.05
					c0.21,0.95,0.32,2.18,0.02,3.11c-0.31,0.96-1.2,1.29-2.11,1.5c-2.37,0.56-5.23,0.63-7.38-0.65c-1.67-0.99-2.94-3.06-2-4.99
					c0.55-1.11,1.84-1.62,2.96-1.93c1.47-0.41,3.01-0.47,4.5-0.17c0.79,0.16,1.62-0.23,1.85-1.05C73.75,46.49,73.3,45.54,72.5,45.39
					L72.5,45.39z"/>
			</g>
		</g>
		<g class="st1">
			<g>
				<path d="M69.71,50.95c-0.39-0.31-0.7-0.5-1.16-0.69c-0.33-0.13-0.66-0.18-1.02-0.22c-0.68-0.07-1.35,0.09-1.96,0.37
					c-0.6,0.27-1.17,0.78-1.46,1.38c-0.45,0.93-0.32,1.94,0.36,2.72c0.41,0.47,1.01,0.76,1.59,0.95c0.59,0.19,1.26,0.32,1.88,0.32
					c0.84,0,1.63-0.28,2.26-0.84c0.33-0.29,0.56-0.7,0.71-1.11c0.16-0.45,0.13-0.9,0.06-1.36c-0.13-0.85-0.71-1.55-1.4-2.02
					c-0.65-0.43-1.47-0.59-2.23-0.61c-0.78-0.02-1.54,0.7-1.5,1.5c0.04,0.83,0.66,1.48,1.5,1.5c0.15,0,0.3,0.02,0.45,0.04
					c-0.13-0.02-0.27-0.04-0.4-0.05c0.24,0.04,0.46,0.1,0.68,0.19c-0.12-0.05-0.24-0.1-0.36-0.15c0.16,0.07,0.3,0.15,0.44,0.26
					c-0.1-0.08-0.2-0.16-0.3-0.23c0.11,0.09,0.21,0.18,0.3,0.3c-0.08-0.1-0.16-0.2-0.23-0.3c0.08,0.11,0.15,0.23,0.2,0.36
					c-0.05-0.12-0.1-0.24-0.15-0.36c0.05,0.13,0.08,0.26,0.1,0.39c-0.02-0.13-0.04-0.27-0.05-0.4c0.01,0.1,0.01,0.19,0,0.29
					c0.02-0.13,0.04-0.27,0.05-0.4c-0.02,0.12-0.04,0.22-0.09,0.33c0.05-0.12,0.1-0.24,0.15-0.36c-0.03,0.07-0.07,0.14-0.12,0.2
					c0.08-0.1,0.16-0.2,0.23-0.3c-0.07,0.09-0.15,0.18-0.25,0.25c0.1-0.08,0.2-0.16,0.3-0.23c-0.11,0.08-0.23,0.15-0.36,0.21
					c0.12-0.05,0.24-0.1,0.36-0.15c-0.15,0.06-0.31,0.1-0.47,0.12c0.13-0.02,0.27-0.04,0.4-0.05c-0.25,0.03-0.5,0.01-0.75-0.02
					c0.13,0.02,0.27,0.04,0.4,0.05c-0.44-0.07-0.88-0.16-1.29-0.33c0.12,0.05,0.24,0.1,0.36,0.15c-0.16-0.07-0.32-0.15-0.46-0.26
					c0.1,0.08,0.2,0.16,0.3,0.23c-0.08-0.06-0.15-0.13-0.21-0.21c0.08,0.1,0.16,0.2,0.23,0.3c-0.05-0.06-0.09-0.13-0.13-0.2
					c0.05,0.12,0.1,0.24,0.15,0.36c-0.03-0.08-0.05-0.15-0.07-0.24c0.02,0.13,0.04,0.27,0.05,0.4c-0.01-0.08-0.01-0.15,0-0.23
					c-0.02,0.13-0.04,0.27-0.05,0.4c0.02-0.08,0.04-0.16,0.07-0.23c-0.05,0.12-0.1,0.24-0.15,0.36c0.04-0.1,0.1-0.18,0.16-0.27
					c-0.08,0.1-0.16,0.2-0.23,0.3c0.09-0.12,0.19-0.22,0.31-0.31c-0.1,0.08-0.2,0.16-0.3,0.23c0.14-0.11,0.29-0.19,0.45-0.26
					c-0.12,0.05-0.24,0.1-0.36,0.15c0.18-0.07,0.37-0.13,0.56-0.16c-0.13,0.02-0.27,0.04-0.4,0.05c0.22-0.03,0.43-0.03,0.64-0.01
					c-0.13-0.02-0.27-0.04-0.4-0.05c0.21,0.03,0.42,0.08,0.62,0.17c-0.12-0.05-0.24-0.1-0.36-0.15c0.16,0.07,0.31,0.16,0.45,0.26
					c-0.1-0.08-0.2-0.16-0.3-0.23c0.02,0.01,0.03,0.02,0.05,0.04c0.32,0.26,0.63,0.44,1.06,0.44c0.37,0,0.81-0.16,1.06-0.44
					c0.26-0.29,0.46-0.66,0.44-1.06C70.14,51.64,70.02,51.19,69.71,50.95L69.71,50.95z"/>
			</g>
		</g>
		<g class="st1">
			<g>
				<path d="M127.89,44.49c-2.95,0.04-6.16,0.74-8.16,3.08c-2.11,2.46-2.78,6.34-0.47,8.89c1.03,1.14,2.52,1.81,3.99,2.13
					c1.59,0.34,3.34,0.51,4.97,0.45c1.64-0.06,3.25-0.5,4.5-1.61c1.24-1.1,1.66-2.71,1.82-4.29c0.18-1.72,0.18-3.53-0.6-5.11
					c-0.75-1.54-2.26-2.57-3.74-3.33c-0.72-0.37-1.63-0.19-2.05,0.54c-0.39,0.67-0.18,1.68,0.54,2.05c0.85,0.44,1.76,0.93,2.35,1.72
					c0.63,0.85,0.62,1.92,0.58,2.94c-0.04,0.93-0.05,2.05-0.58,2.87c-0.48,0.74-1.36,1.08-2.2,1.2c-1.24,0.18-2.6,0.01-3.84-0.14
					c-1.07-0.13-2.18-0.38-3.07-1.01c-1.65-1.18-1.28-3.46-0.24-4.94c1.37-1.96,3.98-2.39,6.2-2.42
					C129.82,47.47,129.82,44.47,127.89,44.49L127.89,44.49z"/>
			</g>
		</g>
		<g class="st1">
			<g>
				<path d="M122.97,50.71c-0.75,0.33-1.3,1.1-1.52,1.87c-0.14,0.48-0.13,0.95-0.04,1.43c0.04,0.23,0.14,0.44,0.23,0.65
					c0.05,0.12,0.12,0.23,0.19,0.33c0.29,0.38,0.6,0.72,1.03,0.94c0.44,0.23,0.86,0.34,1.35,0.38c0.42,0.03,0.84-0.07,1.22-0.23
					c0.38-0.16,0.73-0.39,1-0.71c0.32-0.37,0.55-0.75,0.69-1.22c0.14-0.47,0.13-0.93,0.05-1.41c-0.03-0.19-0.1-0.35-0.17-0.52
					c-0.07-0.18-0.15-0.34-0.26-0.5c-0.3-0.42-0.61-0.73-1.04-1.01c-0.32-0.21-0.69-0.36-1.04-0.48c-0.61-0.2-1.28-0.23-1.85,0.09
					c-0.37,0.2-0.63,0.51-0.88,0.83c-0.16,0.2-0.32,0.4-0.45,0.61c-0.15,0.23-0.25,0.48-0.35,0.74c-0.06,0.14-0.1,0.28-0.13,0.43
					c-0.04,0.27-0.09,0.54-0.06,0.81c0.02,0.25,0.05,0.51,0.14,0.75c0.14,0.39,0.28,0.63,0.55,0.95c0.65,0.79,1.75,0.93,2.7,0.81
					c0.21,0.01,0.4-0.04,0.58-0.13c0.19-0.06,0.35-0.16,0.48-0.31c0.26-0.26,0.46-0.69,0.44-1.06c-0.02-0.39-0.14-0.79-0.44-1.06
					c-0.27-0.25-0.67-0.49-1.06-0.44c-0.29,0.03-0.58,0.06-0.87,0.03c0.13,0.02,0.27,0.04,0.4,0.05c-0.13-0.02-0.26-0.05-0.38-0.1
					c0.12,0.05,0.24,0.1,0.36,0.15c-0.08-0.04-0.15-0.08-0.21-0.13c0.1,0.08,0.2,0.16,0.3,0.23c-0.07-0.06-0.13-0.12-0.18-0.19
					c0.08,0.1,0.16,0.2,0.23,0.3c-0.05-0.07-0.09-0.15-0.13-0.23c0.05,0.12,0.1,0.24,0.15,0.36c-0.05-0.11-0.08-0.22-0.09-0.34
					c0.02,0.13,0.04,0.27,0.05,0.4c-0.02-0.14-0.02-0.27,0-0.41c-0.02,0.13-0.04,0.27-0.05,0.4c0.02-0.17,0.07-0.32,0.13-0.48
					c-0.05,0.12-0.1,0.24-0.15,0.36c0.11-0.25,0.26-0.48,0.42-0.69c-0.08,0.1-0.16,0.2-0.23,0.3c0.14-0.18,0.28-0.37,0.45-0.52
					c-0.1,0.08-0.2,0.16-0.3,0.23c0.04-0.03,0.08-0.06,0.13-0.08c-0.12,0.05-0.24,0.1-0.36,0.15c0.05-0.02,0.1-0.03,0.15-0.04
					c-0.13,0.02-0.27,0.04-0.4,0.05c0.05,0,0.1,0,0.16,0.01c-0.13-0.02-0.27-0.04-0.4-0.05c0.21,0.03,0.41,0.1,0.61,0.18
					c-0.12-0.05-0.24-0.1-0.36-0.15c0.21,0.09,0.4,0.2,0.58,0.33c-0.1-0.08-0.2-0.16-0.3-0.23c0.14,0.11,0.26,0.22,0.36,0.36
					c-0.08-0.1-0.16-0.2-0.23-0.3c0.08,0.11,0.15,0.23,0.21,0.36c-0.05-0.12-0.1-0.24-0.15-0.36c0.04,0.11,0.08,0.22,0.1,0.34
					c-0.02-0.13-0.04-0.27-0.05-0.4c0.02,0.13,0.01,0.25,0,0.38c0.02-0.13,0.04-0.27,0.05-0.4c-0.02,0.13-0.05,0.25-0.1,0.37
					c0.05-0.12,0.1-0.24,0.15-0.36c-0.06,0.13-0.13,0.26-0.21,0.37c0.08-0.1,0.16-0.2,0.23-0.3c-0.08,0.1-0.17,0.19-0.27,0.27
					c0.1-0.08,0.2-0.16,0.3-0.23c-0.09,0.07-0.19,0.13-0.29,0.17c0.12-0.05,0.24-0.1,0.36-0.15c-0.11,0.04-0.21,0.08-0.33,0.09
					c0.13-0.02,0.27-0.04,0.4-0.05c-0.13,0.02-0.25,0.02-0.38,0c0.13,0.02,0.27,0.04,0.4,0.05c-0.14-0.02-0.28-0.06-0.41-0.11
					c0.12,0.05,0.24,0.1,0.36,0.15c-0.13-0.06-0.25-0.13-0.37-0.22c0.1,0.08,0.2,0.16,0.3,0.23c-0.09-0.07-0.17-0.15-0.24-0.24
					c0.08,0.1,0.16,0.2,0.23,0.3c-0.08-0.1-0.14-0.21-0.19-0.33c0.05,0.12,0.1,0.24,0.15,0.36c-0.04-0.11-0.07-0.22-0.09-0.33
					c0.02,0.13,0.04,0.27,0.05,0.4c-0.01-0.13-0.01-0.25,0-0.38c-0.02,0.13-0.04,0.27-0.05,0.4c0.02-0.14,0.06-0.28,0.12-0.41
					c-0.05,0.12-0.1,0.24-0.15,0.36c0.05-0.12,0.12-0.23,0.2-0.33c-0.08,0.1-0.16,0.2-0.23,0.3c0.08-0.1,0.17-0.19,0.27-0.27
					c-0.1,0.08-0.2,0.16-0.3,0.23c0.09-0.07,0.19-0.12,0.29-0.17c0.32-0.14,0.6-0.58,0.69-0.9c0.1-0.36,0.05-0.84-0.15-1.16
					c-0.21-0.32-0.51-0.6-0.9-0.69c-0.13-0.02-0.27-0.04-0.4-0.05C123.46,50.5,123.2,50.57,122.97,50.71L122.97,50.71z"/>
			</g>
		</g>
		<g class="st1">
			<g>
				<path d="M57.02,90.07c2.26,5.28,8.09,7.59,13.3,8.85c7.22,1.74,14.7,2.68,22.11,3.05c7.44,0.36,14.9,0.06,22.29-0.9
					c6.44-0.84,12.96-1.97,19.02-4.39c6.04-2.41,11.63-6.13,14.84-11.94c0.94-1.69-1.65-3.21-2.59-1.51
					c-5.62,10.15-18.54,12.93-29.08,14.53c-14.05,2.13-28.52,1.78-42.45-1.01c-5.45-1.09-12.41-2.5-14.85-8.19
					C58.86,86.79,56.27,88.31,57.02,90.07L57.02,90.07z"/>
			</g>
		</g>
	</g>
</g>
<g id="Bodies" class="st0">
	<g id="_x35__1_" class="st1">
		<g>
			<g>
				<path d="M87.54,149.79c3.15,7.55,11.79,11.61,19.6,12.01c8.29,0.42,16.29-3.3,22.22-8.94c1.4-1.33-0.72-3.45-2.12-2.12
					c-5.17,4.92-12.06,8.23-19.3,8.09c-3.44-0.07-6.89-0.89-9.94-2.48c-3.07-1.6-6.19-4.08-7.56-7.35
					c-0.31-0.75-0.99-1.27-1.85-1.05C87.88,148.13,87.23,149.04,87.54,149.79L87.54,149.79z"/>
			</g>
		</g>
		<g>
			<g>
				<path d="M38.86,283.62c28.79-4.31,58.04-4.31,87.05-2.9c8.16,0.4,16.32,0.91,24.47,1.47c1.93,0.13,1.92-2.87,0-3
					c-29.15-2.01-58.44-3.37-87.62-1.21c-8.27,0.61-16.51,1.52-24.7,2.75C36.16,281.01,36.97,283.9,38.86,283.62L38.86,283.62z"/>
			</g>
		</g>
		<g>
			<g>
				<path d="M77.57,197.89c0.17,7.2,0.66,14.38,1.5,21.54c0.09,0.81,0.62,1.49,1.5,1.5c0.74,0.01,1.59-0.7,1.5-1.5
					c-0.83-7.15-1.33-14.34-1.5-21.54C80.52,195.96,77.52,195.95,77.57,197.89L77.57,197.89z"/>
			</g>
		</g>
		<g>
			<g>
				<path d="M72.74,198.79c4.22,0.14,8.44,0.18,12.67,0.11c1.93-0.03,1.93-3.03,0-3c-4.22,0.07-8.45,0.03-12.67-0.11
					C70.81,195.73,70.81,198.73,72.74,198.79L72.74,198.79z"/>
			</g>
		</g>
		<g>
			<g>
				<path d="M73.96,222.21c4.3-0.15,8.6-0.44,12.88-0.85c0.81-0.08,1.5-0.63,1.5-1.5c0-0.75-0.69-1.58-1.5-1.5
					c-4.29,0.42-8.58,0.7-12.88,0.85C72.04,219.27,72.03,222.27,73.96,222.21L73.96,222.21z"/>
			</g>
		</g>
		<g>
			<g>
				<path d="M114.75,201.37c-0.86-2.99-3.93-4.33-6.85-4.07c-1.6,0.14-3.18,0.57-4.15,1.94c-0.8,1.13-1.01,2.64-0.97,4
					c0.08,3.2,1.71,5.84,3.92,8.05c2.36,2.37,4.88,4.6,7.32,6.88c1.41,1.32,3.53-0.8,2.12-2.12c-1.9-1.78-3.81-3.57-5.71-5.35
					c-1.6-1.49-3.4-3.04-4.19-5.15c-0.53-1.43-1.11-4.58,0.88-5.11c1.66-0.44,4.19-0.22,4.75,1.73
					C112.39,204.02,115.29,203.24,114.75,201.37L114.75,201.37z"/>
			</g>
		</g>
		<g>
			<g>
				<path d="M115.06,202c-0.17-2.21,3.19-1.96,4.57-1.82c0.96,0.1,1.2,0.81,1.44,1.69c0.28,1.02,0.27,2.12,0.06,3.15
					c-0.45,2.24-1.65,4.27-2.88,6.16c-1.29,1.97-2.77,3.79-4.42,5.47c-1.35,1.38,0.77,3.5,2.12,2.12c2.24-2.29,4.22-4.85,5.84-7.62
					c1.59-2.72,2.83-5.79,2.38-8.99c-0.2-1.4-0.68-2.92-1.71-3.94c-1.09-1.07-2.73-1.09-4.17-1.12c-2.87-0.07-6.5,1.46-6.23,4.9
					C112.2,203.91,115.2,203.93,115.06,202L115.06,202z"/>
			</g>
		</g>
		<g>
			<g>
				<path d="M62.81,238.64c-0.62,3.1-0.97,6.25-1.01,9.41c-0.01,0.78,0.7,1.54,1.5,1.5c0.82-0.04,1.49-0.66,1.5-1.5
					c0.04-3,0.33-5.76,0.91-8.62c0.15-0.77-0.22-1.66-1.05-1.85C63.91,237.42,62.98,237.81,62.81,238.64L62.81,238.64z"/>
			</g>
		</g>
		<g>
			<g>
				<path d="M64.99,246.47c0.91-0.03,1.81,0.02,2.71,0.14c-0.13-0.02-0.27-0.04-0.4-0.05c0.69,0.1,1.37,0.23,2.04,0.41
					c0.76,0.2,1.66-0.25,1.85-1.05c0.18-0.79-0.24-1.63-1.05-1.85c-1.67-0.45-3.43-0.66-5.16-0.61c-0.78,0.02-1.54,0.67-1.5,1.5
					C63.53,245.76,64.15,246.5,64.99,246.47L64.99,246.47z"/>
			</g>
		</g>
		<g>
			<g>
				<path d="M70.55,239.84c-0.71,3.05-1.12,6.17-1.23,9.29c-0.03,0.79,0.71,1.54,1.5,1.5c0.84-0.04,1.47-0.66,1.5-1.5
					c0.1-2.98,0.45-5.6,1.12-8.49c0.18-0.76-0.24-1.66-1.05-1.85C71.63,238.62,70.74,239.02,70.55,239.84L70.55,239.84z"/>
			</g>
		</g>
		<g>
			<g>
				<path d="M76.68,241.8c-0.13,2.67-0.32,5.34-0.56,8c-0.07,0.78,0.74,1.53,1.5,1.5c0.87-0.04,1.42-0.66,1.5-1.5
					c0.25-2.66,0.43-5.33,0.56-8c0.04-0.78-0.72-1.54-1.5-1.5C77.33,240.34,76.72,240.96,76.68,241.8L76.68,241.8z"/>
			</g>
		</g>
		<g>
			<g>
				<path d="M87,241.13c-1.43,0.24-3.13,0.3-4.23,1.37c-1.32,1.27-1.02,3.16,0.16,4.4c0.26,0.27,0.57,0.5,0.87,0.72
					c0.12,0.09,0.24,0.17,0.36,0.26c0.06,0.04,0.41,0.32,0.15,0.11c0.13,0.11,0.25,0.23,0.37,0.34c0.21,0.19-0.06-0.18,0.07,0.09
					c0.04,0.07,0.08,0.14,0.12,0.22c-0.07-0.17-0.07-0.17-0.01-0.01c0.02,0.06,0.08,0.45,0.05,0.09c0.01,0.13-0.06,0.57,0.04,0.2
					c-0.08,0.25,0.02,0.17,0.29-0.24c0.39-0.3,0.46-0.4,0.2-0.31c-0.33,0.01-0.71,0.18-1.04,0.25c-0.35,0.07-0.7,0.14-1.05,0.2
					c-0.2,0.03-0.4,0.06-0.6,0.1c-0.18,0.03-0.2,0.03-0.05,0.01c-0.1,0.01-0.2,0.03-0.3,0.04c-0.78,0.09-1.54,0.62-1.5,1.5
					c0.03,0.73,0.67,1.6,1.5,1.5c0.84-0.1,1.68-0.22,2.5-0.39c0.78-0.16,1.73-0.27,2.34-0.83c1.32-1.22,0.58-3.54-0.53-4.63
					c-0.27-0.27-0.59-0.49-0.89-0.72c-0.14-0.1-0.28-0.2-0.42-0.3c-0.34-0.24,0.21,0.2-0.1-0.08c-0.12-0.11-0.24-0.22-0.35-0.34
					c0.23,0.24-0.03-0.08-0.08-0.15c-0.05-0.1-0.04-0.07,0.03,0.09c-0.03-0.07-0.05-0.15-0.06-0.22c0.02,0.21,0.03,0.23,0.03,0.05
					c-0.03,0.2-0.03,0.22,0.02,0.06c-0.07,0.17-0.08,0.2-0.02,0.11c0.06-0.09,0.04-0.06-0.06,0.08c0.12-0.11,0.11-0.11-0.04,0.01
					c0.06-0.04,0.13-0.09,0.19-0.12c0.14-0.07,0.14-0.07,0-0.01c0.06-0.02,0.13-0.05,0.2-0.06c0.15-0.05,0.31-0.08,0.47-0.11
					c0.72-0.15,1.45-0.25,2.18-0.37c0.78-0.13,1.28-1.13,1.05-1.85C88.57,241.34,87.83,240.99,87,241.13L87,241.13z"/>
			</g>
		</g>
		<g>
			<g>
				<path d="M94.15,243.38c0.26,2.6,0.34,5.22,0.24,7.83c-0.03,0.78,0.71,1.54,1.5,1.5c0.84-0.04,1.47-0.66,1.5-1.5
					c0.1-2.61,0.02-5.23-0.24-7.83c-0.08-0.78-0.63-1.54-1.5-1.5C94.91,241.92,94.07,242.55,94.15,243.38L94.15,243.38z"/>
			</g>
		</g>
		<g>
			<g>
				<path d="M90.75,242.96c2.84,0.41,5.7,0.57,8.57,0.4c0.78-0.05,1.54-0.66,1.5-1.5c-0.03-0.77-0.66-1.55-1.5-1.5
					c-1.34,0.08-2.68,0.1-4.01,0.05c-0.64-0.03-1.28-0.07-1.92-0.12c-0.32-0.03-0.64-0.06-0.96-0.1c-0.19-0.02-0.37-0.04-0.56-0.07
					c-0.11-0.01-0.11-0.01,0,0c-0.11-0.01-0.21-0.03-0.32-0.05c-0.77-0.11-1.65,0.19-1.85,1.05
					C89.55,241.82,89.92,242.84,90.75,242.96L90.75,242.96z"/>
			</g>
		</g>
		<g>
			<g>
				<path d="M107.99,240.79c-1.14,0.12-2.06,0.59-2.96,1.27c-0.88,0.68-1.72,1.37-2.31,2.33c-1,1.64-1.23,3.8-0.51,5.59
					c0.46,1.16,1.22,2.05,2.4,2.51c0.89,0.35,1.88,0.35,2.83,0.29c1.11-0.08,2.26-0.22,3.1-1.01c0.79-0.74,1.06-1.82,1.22-2.86
					c0.39-2.5,0.08-5.14-1.78-7.01c-0.55-0.56-1.57-0.6-2.12,0c-0.55,0.6-0.59,1.53,0,2.12c0.07,0.07,0.13,0.14,0.2,0.21
					c0,0,0.16,0.18,0.07,0.07c-0.1-0.13,0.08,0.11,0.1,0.14c0.04,0.06,0.08,0.12,0.12,0.18c0.09,0.15,0.17,0.3,0.24,0.45
					c0.11,0.22-0.07-0.19,0.02,0.05c0.04,0.11,0.08,0.23,0.12,0.35c0.23,0.75,0.25,1.21,0.21,2.04c-0.04,0.64-0.11,1.28-0.37,2.01
					c0.11-0.3-0.16,0.19-0.06,0.08c0.14-0.15-0.2,0.12-0.02,0.01c0.14-0.09-0.06,0.02-0.07,0.03c0.31-0.07-0.21,0.06-0.27,0.07
					c-0.07,0.01-0.14,0.02-0.2,0.04c-0.24,0.05,0.34-0.03-0.08,0.01c-0.32,0.02-0.64,0.05-0.96,0.06c-0.16,0-0.33,0.01-0.49,0
					c-0.07,0-0.14-0.01-0.21-0.01c-0.41-0.01,0.15,0.05-0.08,0c-0.15-0.03-0.3-0.07-0.46-0.11c-0.08-0.02-0.23-0.12-0.01,0
					c-0.05-0.03-0.12-0.08-0.17-0.1c-0.19-0.06,0.12,0.14-0.02,0c-0.05-0.05-0.1-0.1-0.15-0.14c-0.04-0.04-0.16-0.22-0.02-0.02
					c-0.05-0.08-0.1-0.15-0.15-0.24c-0.05-0.08-0.09-0.16-0.13-0.25c0.03,0.06,0.08,0.25,0-0.02c-0.04-0.13-0.08-0.26-0.12-0.39
					c-0.02-0.07-0.09-0.59-0.07-0.27c-0.02-0.18-0.03-0.36-0.03-0.54c0-0.16,0.02-0.32,0.02-0.47c0.01-0.18,0,0.04-0.01,0.06
					c0.02-0.09,0.03-0.18,0.05-0.27c0.03-0.15,0.08-0.31,0.12-0.46c0.02-0.06,0.04-0.13,0.07-0.19c0.13-0.38-0.08,0.11,0.03-0.08
					c0.11-0.17,0.19-0.36,0.3-0.53c0.04-0.06,0.08-0.11,0.12-0.17c0.13-0.19-0.24,0.25,0.07-0.08c0.28-0.3,0.58-0.58,0.91-0.84
					c0.08-0.07,0.16-0.13,0.24-0.19c-0.12,0.1,0,0,0.05-0.04c0.16-0.12,0.32-0.23,0.49-0.34c0.08-0.05,0.17-0.1,0.25-0.15
					c0.03-0.02,0.36-0.18,0.21-0.11c-0.14,0.06,0.08-0.02,0.09-0.03c0.03-0.01,0.46-0.09,0.17-0.06c0.78-0.08,1.54-0.63,1.5-1.5
					C109.46,241.55,108.83,240.71,107.99,240.79L107.99,240.79z"/>
			</g>
		</g>
		<g>
			<g>
				<path d="M113.75,242.94c0.01,0.05,0.1,0.63,0.06,0.33c0.02,0.15,0.04,0.29,0.05,0.44c0.03,0.34,0.06,0.69,0.08,1.03
					c0.04,0.64,0.05,1.29,0.08,1.93c0.06,1.41,0.16,2.83,0.52,4.2c0.2,0.76,1.08,1.29,1.85,1.05c0.78-0.25,1.26-1.03,1.05-1.85
					c-0.09-0.33-0.16-0.67-0.22-1.01c-0.01-0.06-0.07-0.45-0.03-0.18c-0.03-0.19-0.05-0.39-0.06-0.59
					c-0.06-0.64-0.09-1.28-0.11-1.92c-0.05-1.42-0.12-2.83-0.36-4.24c-0.14-0.77-1.12-1.28-1.85-1.05
					C113.96,241.37,113.6,242.11,113.75,242.94L113.75,242.94z"/>
			</g>
		</g>
		<g>
			<g>
				<path d="M116.07,242.03c0.5-0.15,1.01-0.31,1.53-0.38c0.15-0.02,0.39-0.04,0.58-0.04c0.13,0,0.26,0,0.39,0.01
					c0.21,0.02,0.26,0.02,0.14,0.01c0.19,0.03,0.38,0.09,0.57,0.15c0.17,0.06,0.18,0.07,0.05,0.02c0.09,0.04,0.17,0.09,0.26,0.14
					c0.26,0.15,0.38,0.3,0.49,0.45c0.08,0.16,0.09,0.17,0.04,0.03c0.04,0.19,0.06,0.23,0.06,0.12c-0.07,0.02,0.39-0.39,0.05-0.13
					c0.22-0.16-0.24,0.14-0.29,0.17c-0.19,0.1-0.38,0.18-0.57,0.27c-0.97,0.43-1.94,0.87-2.91,1.3c-0.94,0.42-0.88,1.71-0.3,2.36
					c1.61,1.81,3.36,3.49,5.23,5.02c0.63,0.51,1.51,0.61,2.12,0c0.53-0.53,0.63-1.6,0-2.12c-1.87-1.54-3.62-3.22-5.23-5.02
					c-0.1,0.79-0.2,1.57-0.3,2.36c0.67-0.3,1.33-0.6,2-0.89c0.56-0.25,1.15-0.47,1.67-0.78c0.63-0.38,1.17-0.92,1.4-1.63
					c0.27-0.81,0.08-1.68-0.3-2.42c-0.58-1.11-1.75-1.89-2.94-2.2c-1.5-0.39-3.06-0.09-4.51,0.35c-0.77,0.24-1.27,1.05-1.05,1.85
					C114.44,241.75,115.3,242.27,116.07,242.03L116.07,242.03z"/>
			</g>
		</g>
		<g>
			<g>
				<path d="M125.15,239.89c-0.11,0.8,0.43,1.52,0.85,2.15c0.4,0.59,0.83,1.16,1.27,1.73c0.75,0.97,1.56,1.89,2.42,2.76
					c0.55,0.56,1.58,0.59,2.12,0c0.55-0.6,0.59-1.52,0-2.12c-0.79-0.8-1.54-1.64-2.23-2.52c-0.04-0.05-0.08-0.11-0.12-0.16
					c-0.12-0.16,0.17,0.23,0.05,0.06c-0.08-0.11-0.16-0.21-0.24-0.32c-0.17-0.23-0.34-0.46-0.5-0.69c-0.15-0.22-0.3-0.44-0.45-0.67
					c-0.08-0.12-0.15-0.26-0.24-0.38c-0.11-0.15,0.09,0.26,0.04,0.09c-0.05-0.15,0,0.36,0.04,0.07c0.05-0.35-0.2-0.82-0.44-1.06
					c-0.26-0.26-0.69-0.46-1.06-0.44c-0.39,0.02-0.79,0.14-1.06,0.44C125.3,239.14,125.21,239.47,125.15,239.89L125.15,239.89z"/>
			</g>
		</g>
		<g>
			<g>
				<path d="M133.14,239c-2.38,3.86-4.27,8.01-5.65,12.32c-0.59,1.84,2.31,2.63,2.89,0.8c1.3-4.08,3.1-7.96,5.35-11.6
					C136.74,238.87,134.15,237.36,133.14,239L133.14,239z"/>
			</g>
		</g>
	</g>
	<g id="_x34__1_">
		<g class="st1">
			<g>
				<path d="M89.62,149.8c0.89,20.66,0.12,41.39-2.33,61.93c-1.23,10.34-2.88,20.64-4.98,30.84c-1,4.84-2.16,9.66-3.82,14.32
					c-1.71,4.8-4.08,9.29-6.53,13.75c-5.65,10.28-11.33,20.54-17.07,30.77c-0.95,1.69,1.64,3.2,2.59,1.51
					c5.18-9.24,10.3-18.51,15.42-27.79c2.45-4.44,4.96-8.86,6.95-13.54c1.99-4.69,3.41-9.58,4.55-14.54
					c4.64-20.23,7.1-41.13,8.12-61.85c0.58-11.79,0.61-23.61,0.1-35.4C92.53,147.87,89.53,147.86,89.62,149.8L89.62,149.8z"/>
			</g>
		</g>
		<g class="st1">
			<g>
				<path d="M114.56,144.9c-4.71,20.63-6.69,41.86-5.92,63.01c0.77,21.14,4.22,42.2,10.33,62.45c3.43,11.39,7.71,22.51,12.77,33.27
					c0.82,1.75,3.41,0.22,2.59-1.51c-8.89-18.91-15.23-38.99-18.95-59.55c-3.69-20.41-4.76-41.29-3.2-61.97
					c0.89-11.74,2.66-23.4,5.28-34.89C117.88,143.82,114.99,143.02,114.56,144.9L114.56,144.9z"/>
			</g>
		</g>
		<g class="st1">
			<g>
				<path d="M67.16,242.59c1.37,12.62-3.73,25.4-13.43,33.59c-1.48,1.25,0.65,3.36,2.12,2.12c10.23-8.63,15.76-22.4,14.31-35.71
					C69.96,240.7,66.96,240.67,67.16,242.59L67.16,242.59z"/>
			</g>
		</g>
		<g class="st1">
			<g>
				<path d="M122.69,245.81c0.46,1.77,0.54,3.65,0.88,5.45c0.3,1.55,0.67,3.09,1.12,4.6c0.96,3.21,2.25,6.34,3.82,9.3
					c3.12,5.87,7.42,11.11,12.59,15.28c1.49,1.2,3.63-0.91,2.12-2.12c-5-4.03-9.11-9-12.12-14.67c-1.49-2.8-2.68-5.73-3.57-8.77
					c-0.44-1.52-0.81-3.05-1.1-4.61c-0.33-1.74-0.4-3.54-0.85-5.25C125.09,243.14,122.2,243.93,122.69,245.81L122.69,245.81z"/>
			</g>
		</g>
		<g class="st1">
			<g>
				<path d="M92.32,181.07c5.98,2.06,12.47,2.33,18.62,0.86c1.88-0.45,1.08-3.34-0.8-2.89c-5.65,1.35-11.54,1.03-17.02-0.86
					C91.29,177.54,90.5,180.44,92.32,181.07L92.32,181.07z"/>
			</g>
		</g>
		<g class="st1">
			<g>
				<path d="M69.66,279.56c17.44,3.91,35.62,3.88,53.05-0.11c1.88-0.43,1.09-3.32-0.8-2.89c-16.89,3.86-34.55,3.9-51.45,0.11
					C68.58,276.24,67.78,279.14,69.66,279.56L69.66,279.56z"/>
			</g>
		</g>
	</g>
	<g id="_x33__1_">
		<g class="st1">
			<g>
				<path d="M76.31,156.22c-0.7,4.8,3.18,7.7,6.99,9.65c4.11,2.11,8.55,3.57,13.12,4.28c8.93,1.39,18.03,0.01,26.13-4.01
					c4.39-2.17,8.39-5.11,11.81-8.61c1.35-1.38-0.77-3.5-2.12-2.12c-11.24,11.49-28.36,15.29-43.41,9.65c-2.14-0.8-4.25-1.8-6.2-3
					c-1.7-1.05-3.75-2.79-3.42-5.04C79.48,155.13,76.59,154.32,76.31,156.22L76.31,156.22z"/>
			</g>
		</g>
		<g class="st1">
			<g>
				<path d="M70.49,163.06c0.7,4.28,5.22,6.56,8.61,8.5c4.47,2.55,9.04,4.34,14.18,4.91c5.21,0.58,10.59,0.83,15.83,0.68
					c5.07-0.14,10.05-1.01,14.83-2.72c5.33-1.91,10.33-4.61,15.15-7.57c1.64-1.01,0.14-3.6-1.51-2.59
					c-7.85,4.82-16.27,8.98-25.59,9.73c-4.96,0.4-9.94,0.07-14.9-0.23c-4.78-0.29-9.2-1.07-13.51-3.22
					c-2.24-1.11-4.44-2.37-6.53-3.74c-1.7-1.11-3.31-2.45-3.66-4.56C73.08,160.36,70.19,161.17,70.49,163.06L70.49,163.06z"/>
			</g>
		</g>
		<g class="st1">
			<g>
				<path d="M62.83,178.22c20.12,0.24,40.24,0.29,60.36,0.15c5.71-0.04,11.43-0.09,17.14-0.16c1.93-0.02,1.93-3.02,0-3
					c-20.12,0.24-40.24,0.3-60.36,0.17c-5.71-0.04-11.43-0.09-17.14-0.16C60.9,175.2,60.9,178.2,62.83,178.22L62.83,178.22z"/>
			</g>
		</g>
		<g class="st1">
			<g>
				<path d="M56.34,189.67c22.52-1.12,45.06-1.7,67.61-1.73c6.41-0.01,12.81,0.03,19.22,0.11c1.93,0.02,1.93-2.98,0-3
					c-22.54-0.28-45.09-0.03-67.63,0.79c-6.4,0.23-12.8,0.51-19.2,0.83C54.42,186.77,54.41,189.77,56.34,189.67L56.34,189.67z"/>
			</g>
		</g>
		<g class="st1">
			<g>
				<path d="M60.89,179.27c2.97,2.86,5.92,5.76,8.93,8.58c1.37,1.29,2.43,1.39,4.03,0.45c1.72-1.01,3.45-2.02,5.19-3
					c1.74-0.98,3.5-1.94,5.26-2.88c0.85-0.45,1.7-0.9,2.55-1.34c0.6-0.31,1.72-1.22,2.42-1.13c0.26,0.03,0.92,0.66,1.11,0.8
					c0.39,0.29,0.78,0.57,1.17,0.86c0.78,0.57,1.56,1.15,2.34,1.72c1.69,1.24,3.38,2.48,5.07,3.72c0.42,0.31,1.09,0.25,1.51,0
					c3.83-2.23,7.74-4.34,11.72-6.3c0.43-0.21,0.85-0.42,1.28-0.63c0.38-0.18,0.99-0.63,1.41-0.67c0.64-0.05,1.67,1.06,2.21,1.46
					c1.75,1.29,3.53,2.54,5.33,3.75c1.49,1,3.17,2.49,4.94,2.93c1.69,0.42,3.61-0.79,5.08-1.49c3.68-1.75,7.1-3.96,10.29-6.5
					c1.51-1.2-0.63-3.31-2.12-2.12c-3.09,2.46-6.49,4.55-10.08,6.21c-0.61,0.28-1.83,1.08-2.54,0.97c-0.75-0.11-1.7-1.04-2.31-1.44
					c-1.76-1.14-3.49-2.32-5.2-3.53c-0.88-0.63-1.76-1.27-2.63-1.92c-0.63-0.47-1.25-1.03-2.02-1.26c-1.84-0.53-4.02,1.07-5.59,1.85
					c-3.83,1.9-7.6,3.94-11.29,6.09c0.5,0,1.01,0,1.51,0c-3.16-2.32-6.24-4.87-9.53-6.99c-1.71-1.1-3.15-0.25-4.76,0.58
					c-1.71,0.88-3.41,1.77-5.09,2.68c-1.69,0.91-3.37,1.85-5.03,2.8c-0.83,0.48-1.66,0.96-2.49,1.44c-0.36,0.21-0.95,0.42-1.24,0.73
					c-0.54,0.18-0.55,0.3-0.04,0.37c-0.12-0.11-0.24-0.23-0.36-0.34c-0.53-0.75-1.48-1.42-2.14-2.06c-0.71-0.69-1.43-1.37-2.14-2.06
					c-1.55-1.49-3.09-2.98-4.64-4.46C61.62,175.81,59.5,177.93,60.89,179.27L60.89,179.27z"/>
			</g>
		</g>
		<g class="st1">
			<g>
				<path d="M47.67,218.33c26.15-0.84,52.32-1.04,78.49-0.58c7.39,0.13,14.78,0.31,22.17,0.54c1.93,0.06,1.93-2.94,0-3
					c-26.15-0.82-52.33-1-78.49-0.52c-7.39,0.14-14.78,0.32-22.17,0.56C45.74,215.39,45.73,218.39,47.67,218.33L47.67,218.33z"/>
			</g>
		</g>
		<g class="st1">
			<g>
				<path d="M45.68,228.26c27.05,1.49,54.15,1.94,81.23,1.36c7.64-0.17,15.28-0.42,22.92-0.75c1.92-0.08,1.93-3.08,0-3
					c-27.06,1.17-54.17,1.31-81.24,0.4c-7.64-0.26-15.28-0.6-22.91-1.01C43.75,225.15,43.76,228.15,45.68,228.26L45.68,228.26z"/>
			</g>
		</g>
		<g class="st1">
			<g>
				<path d="M45.28,218.57c3.98,3.51,8.46,6.42,13.34,8.54c2.3,1,4.6,2.23,7.02,0.93c2.24-1.21,3.91-3.23,5.75-4.93
					c2-1.84,4.36-3.19,6.74-4.48c0.46-0.25,1.02-0.68,1.52-0.81c0.62-0.15,1.07,0.3,1.6,0.63c1.28,0.8,2.55,1.61,3.8,2.45
					c2.38,1.58,4.72,3.22,7.01,4.92c1.15,0.85,2.26,1.75,3.41,2.59c0.93,0.69,1.99,1,3.09,0.48c1.23-0.58,2.22-1.81,3.25-2.68
					c1.12-0.95,2.29-1.85,3.5-2.7c2.51-1.75,5.17-3.27,7.94-4.56c1.75-0.81,0.23-3.4-1.51-2.59c-4.61,2.15-8.89,4.94-12.71,8.29
					c-0.43,0.38-0.83,0.83-1.29,1.17c0.4-0.3-0.48,0.35-0.22,0.36c-0.15,0-0.47-0.33-0.6-0.43c-1.12-0.83-2.21-1.7-3.34-2.54
					c-2.23-1.65-4.5-3.25-6.82-4.78c-1.12-0.75-2.25-1.48-3.4-2.2c-1.01-0.64-2.08-1.46-3.32-1.51c-1.1-0.04-2.11,0.6-3.05,1.1
					c-1.16,0.62-2.32,1.25-3.44,1.94c-2.14,1.32-4.01,2.89-5.79,4.65c-0.83,0.82-1.67,1.67-2.62,2.36c-0.4,0.29-0.89,0.68-1.37,0.83
					c-0.65,0.2-1.41-0.21-2.02-0.44c-5.27-2-10.15-5-14.37-8.73C45.96,215.18,43.83,217.29,45.28,218.57L45.28,218.57z"/>
			</g>
		</g>
		<g class="st1">
			<g>
				<path d="M112.4,218.27c2.45,2.25,5.07,4.33,7.84,6.18c1.33,0.89,2.7,1.73,4.1,2.51c1.35,0.75,2.82,1.74,4.43,1.51
					c1.56-0.23,3.03-1.29,4.4-2.01c1.69-0.89,3.39-1.78,5.08-2.67c3.39-1.78,6.77-3.56,10.16-5.34c1.71-0.9,0.19-3.49-1.51-2.59
					c-5.93,3.12-11.79,6.48-17.83,9.37c-1.29,0.62-2.65-0.54-3.78-1.18c-1.26-0.72-2.5-1.49-3.71-2.31
					c-2.5-1.68-4.84-3.55-7.06-5.59C113.1,214.85,110.97,216.97,112.4,218.27L112.4,218.27z"/>
			</g>
		</g>
		<g class="st1">
			<g>
				<path d="M42.7,250.6c7.06-2.81,14.92-5.93,22.59-3.85c3.64,0.99,7.02,2.68,10.7,3.54c3.5,0.82,7.14,1.18,10.74,0.98
					c3.84-0.22,7.48-1.11,11.07-2.46c3.67-1.39,7.31-2.57,11.25-2.88c3.68-0.29,7.36,0.03,10.94,0.94
					c3.67,0.94,7.18,2.36,10.78,3.52c6.93,2.24,15.34,3.47,21.57-1.26c1.52-1.15,0.02-3.76-1.51-2.59
					c-5.56,4.22-12.87,3.01-19.05,1.03c-3.53-1.13-6.97-2.52-10.56-3.47c-3.66-0.97-7.47-1.42-11.26-1.23
					c-3.67,0.19-7.28,0.94-10.73,2.2c-3.67,1.34-7.22,2.72-11.15,3.09c-3.62,0.35-7.29,0.12-10.85-0.67
					c-3.7-0.82-7.09-2.46-10.71-3.52c-8.38-2.45-16.85,0.64-24.62,3.72C40.13,248.42,40.91,251.32,42.7,250.6L42.7,250.6z"/>
			</g>
		</g>
		<g class="st1">
			<g>
				<path d="M39.38,262.79c6.22,3.78,13.41,5.85,20.69,5.96c3.72,0.05,7.39-0.48,11-1.34c3.79-0.91,7.53-2.11,11.38-2.75
					c14.53-2.42,28.03,7.66,42.56,4.68c4.27-0.88,8.16-2.98,12.41-3.93c4.35-0.98,8.88-0.82,13.18,0.32c1.87,0.5,2.66-2.4,0.8-2.89
					c-3.73-0.99-7.63-1.33-11.46-0.87c-3.87,0.46-7.38,1.79-11.02,3.1c-3.48,1.25-6.93,1.96-10.65,1.83
					c-3.55-0.12-7.03-0.86-10.47-1.71c-6.86-1.7-13.74-3.99-20.89-3.91c-7.78,0.09-14.94,3.58-22.62,4.32
					c-8.16,0.78-16.41-1.12-23.41-5.38C39.24,259.2,37.73,261.79,39.38,262.79L39.38,262.79z"/>
			</g>
		</g>
		<g class="st1">
			<g>
				<path d="M38.97,280.71c14.34,1.15,28.77,0.76,43.15,0.67c14.44-0.09,28.87-0.18,43.31-0.27c8.13-0.05,16.26-0.1,24.39-0.15
					c1.93-0.01,1.93-3.01,0-3c-28.86,0.18-57.73,0.5-86.59,0.53c-8.09,0.01-16.19-0.13-24.26-0.77
					C37.04,277.55,37.05,280.55,38.97,280.71L38.97,280.71z"/>
			</g>
		</g>
		<g class="st1">
			<g>
				<path d="M39.42,275.08c28.89-1.2,57.79,0.24,86.69-0.12c8.09-0.1,16.17-0.35,24.25-0.83c1.92-0.11,1.93-3.12,0-3
					c-28.87,1.72-57.78,0.4-86.67,0.47c-8.09,0.02-16.18,0.15-24.26,0.49C37.49,272.16,37.48,275.16,39.42,275.08L39.42,275.08z"/>
			</g>
		</g>
		<g class="st1">
			<g>
				<path d="M65.84,196.29c-0.4,1.5-1.42,2.67-2.41,3.82c-1.08,1.26-2.58,2.78-2.98,4.45c-0.34,1.45,0.8,2.09,1.95,2.49
					c1.05,0.36,2.09,0.72,3.14,1.08c2.18,0.75,4.36,1.5,6.54,2.25c0.75,0.26,1.66-0.3,1.85-1.05c0.37-1.5,0.96-2.9,1.81-4.2
					c0.41-0.63,0.93-1.17,1.37-1.78c0.72-0.99,0.48-2.22-0.54-2.89c-0.69-0.45-1.49-0.78-2.21-1.19c-0.75-0.43-1.49-0.87-2.22-1.33
					c-1.49-0.95-2.95-1.96-4.33-3.06c-0.63-0.5-1.5-0.62-2.12,0c-0.52,0.52-0.64,1.62,0,2.12c1.49,1.18,3.02,2.3,4.61,3.32
					c0.76,0.49,1.54,0.96,2.32,1.41c0.37,0.21,0.75,0.42,1.13,0.63c0.23,0.12,0.46,0.24,0.69,0.36c0.2,0.1,0.56,0.48,0.31,0.06
					c-0.07-0.25-0.14-0.5-0.2-0.76c0,0.07,0,0.14-0.01,0.22c0.07-0.25,0.14-0.5,0.2-0.76c-0.28,0.55-0.83,1.05-1.2,1.56
					c-0.38,0.53-0.73,1.09-1.04,1.67c-0.64,1.2-1.14,2.49-1.46,3.82c0.62-0.35,1.23-0.7,1.85-1.05c-1.74-0.6-3.49-1.2-5.23-1.8
					c-0.83-0.29-1.66-0.57-2.48-0.86c-0.44-0.15-0.87-0.3-1.31-0.45c-0.22-0.08-0.44-0.15-0.65-0.23c-0.09-0.03-0.17-0.06-0.26-0.09
					c-0.36-0.14-0.35-0.12,0.04,0.06c0.15,0.35,0.29,0.71,0.44,1.06c-0.1,0.19-0.09,0.17,0.02-0.05c0.03-0.06,0.06-0.12,0.09-0.18
					c0.1-0.18,0.2-0.35,0.3-0.52c0.18-0.29,0.38-0.58,0.59-0.86c0.52-0.68,1.1-1.31,1.65-1.97c1.14-1.36,2.18-2.78,2.65-4.52
					C69.24,195.22,66.35,194.42,65.84,196.29L65.84,196.29z"/>
			</g>
		</g>
		<g class="st1">
			<g>
				<path d="M99.88,195.88c-0.81,0.78-1.61,1.56-2.42,2.34c-0.77,0.74-1.65,1.45-2.31,2.29c-0.42,0.53-0.66,1.19-0.51,1.87
					c0.15,0.68,0.58,1.09,1.12,1.48c0.9,0.66,1.82,1.3,2.73,1.95c0.88,0.63,1.76,1.26,2.64,1.89c0.56,0.4,1.14,0.76,1.88,0.57
					c0.62-0.16,0.95-0.61,1.32-1.08c0.7-0.87,1.4-1.75,2.1-2.62c0.75-0.94,2-2.05,1.19-3.34c-0.64-1.02-1.5-1.95-2.23-2.9
					c-0.77-1.01-1.55-2.01-2.32-3.02c-0.49-0.64-1.29-0.98-2.05-0.54c-0.63,0.37-1.04,1.41-0.54,2.05c0.77,1.01,1.55,2.01,2.32,3.02
					c0.37,0.47,0.73,0.95,1.1,1.42c0.19,0.25,0.39,0.5,0.58,0.75c0.11,0.14,0.22,0.28,0.32,0.42c0.07,0.09,0.22,0.41,0.15,0.12
					c0-0.27,0-0.53,0-0.8c0.21-0.35,0.21-0.39,0.02-0.14c-0.09,0.11-0.17,0.22-0.26,0.33c-0.13,0.16-0.26,0.33-0.39,0.49
					c-0.31,0.38-0.61,0.76-0.92,1.15c-0.31,0.38-0.61,0.76-0.92,1.15c-0.26,0.32-0.5,0.71-0.82,0.98c0.22-0.13,0.44-0.26,0.66-0.39
					c-0.03,0.01-0.07,0.03-0.1,0.04c0.27,0,0.53,0,0.8,0c0.15,0.03-0.05-0.05-0.11-0.09c-0.11-0.08-0.23-0.16-0.34-0.24
					c-0.26-0.18-0.51-0.37-0.77-0.55c-0.48-0.35-0.97-0.69-1.45-1.04c-0.97-0.69-1.93-1.38-2.9-2.08c-0.06-0.04-0.11-0.08-0.17-0.12
					c0.02,0.01,0.04,0.03,0.06,0.04c-0.14,0.1,0.38,0.98,0.16,1.03c0.16-0.03,0.45-0.44,0.57-0.55c0.43-0.41,0.86-0.83,1.28-1.24
					c0.88-0.85,1.76-1.7,2.64-2.56c0.58-0.56,0.57-1.56,0-2.12C101.42,195.3,100.47,195.32,99.88,195.88L99.88,195.88z"/>
			</g>
		</g>
		<g class="st1">
			<g>
				<path d="M128.28,197.06c-1.66,2.17-3.26,4.39-4.8,6.65c-0.6,0.88,0.07,1.87,0.9,2.2c0.94,0.38,1.88,0.76,2.82,1.14
					c0.91,0.37,1.87,0.95,2.88,0.73c0.91-0.2,1.65-1.08,2.15-1.82c0.38-0.55,0.65-1.17,0.95-1.77c0.14-0.29,0.29-0.58,0.46-0.86
					c0.09-0.15,0.18-0.29,0.28-0.43c-0.2,0.28,0.13-0.13,0.17-0.18c0.06-0.06,0.12-0.12,0.19-0.17c-0.21,0.15-0.14,0.1,0.2-0.16
					c0.19-0.16,0.34-0.34,0.46-0.56c0.37-0.69,0.21-1.46-0.3-2.02c-1.36-1.49-2.86-2.86-4.29-4.28c-0.57-0.57-1.55-0.57-2.12,0
					c-0.57,0.57-0.58,1.55,0,2.12c0.73,0.73,1.47,1.46,2.2,2.19c0.37,0.37,0.73,0.73,1.1,1.1c0.18,0.18,0.37,0.37,0.55,0.55
					c0.09,0.09,0.18,0.18,0.27,0.27c0.18,0.19,0.18,0.18,0-0.03c-0.07-0.25-0.14-0.5-0.2-0.76c0,0.03,0,0.07,0,0.1
					c0.07-0.25,0.14-0.5,0.2-0.76c0.05-0.09,0.41-0.37,0.06-0.09c-0.12,0.09-0.23,0.18-0.34,0.28c-0.14,0.13-0.26,0.27-0.38,0.42
					c-0.31,0.38-0.59,0.78-0.82,1.22c-0.39,0.72-0.7,1.5-1.15,2.19c-0.05,0.07-0.1,0.14-0.14,0.21c0.17-0.24,0.01-0.01-0.04,0.04
					c-0.08,0.08-0.39,0.3-0.41,0.39c0.09-0.11,0.22-0.14,0.39-0.09c0.33,0.02,0.41,0.01,0.25-0.03c-0.06-0.06-0.26-0.1-0.35-0.13
					c-0.26-0.11-0.53-0.21-0.79-0.32c-1.14-0.46-2.29-0.93-3.43-1.39c0.3,0.73,0.6,1.47,0.9,2.2c1.54-2.26,3.14-4.48,4.8-6.65
					c0.49-0.64,0.1-1.68-0.54-2.05C129.56,196.07,128.78,196.42,128.28,197.06L128.28,197.06z"/>
			</g>
		</g>
	</g>
	<g id="_x32__1_">
		<g class="st1">
			<g>
				<path d="M77.15,157.75c1.41,3.58,4.62,5.53,8.07,6.87c4.09,1.58,8.52,2.21,12.88,2.39c8.02,0.34,16.37-0.64,23.64-4.25
					c3.76-1.87,8.01-4.61,9.31-8.84c0.57-1.85-2.33-2.64-2.89-0.8c-0.97,3.17-4.44,5.21-7.2,6.67c-3.05,1.62-6.38,2.67-9.76,3.34
					c-7.06,1.4-14.96,1.47-21.94-0.37c-3.28-0.86-7.85-2.32-9.22-5.81C79.34,155.18,76.44,155.95,77.15,157.75L77.15,157.75z"/>
			</g>
		</g>
		<g class="st1">
			<g>
				<path d="M68.78,166.52c6.31,3.82,11.87,8.71,16.51,14.44c0.6,0.74,1.94,0.49,2.36-0.3c2.53-4.88,5.29-10.16,10.48-12.63
					c1.74-0.83,0.22-3.42-1.51-2.59c-5.64,2.69-8.8,8.38-11.56,13.7c0.79-0.1,1.57-0.2,2.36-0.3c-4.79-5.93-10.6-10.97-17.12-14.91
					C68.64,162.93,67.13,165.52,68.78,166.52L68.78,166.52z"/>
			</g>
		</g>
		<g class="st1">
			<g>
				<path d="M111.17,166.31c3.42,3.74,6.16,8.08,8.04,12.8c0.45,1.12,2.06,1.58,2.74,0.36c3.25-5.87,8.78-10.18,15.27-11.89
					c1.87-0.49,1.07-3.39-0.8-2.89c-7.21,1.9-13.45,6.74-17.06,13.27c0.91,0.12,1.83,0.24,2.74,0.36
					c-2.07-5.22-5.02-9.97-8.81-14.12C111.99,162.76,109.87,164.89,111.17,166.31L111.17,166.31z"/>
			</g>
		</g>
		<g class="st1">
			<g>
				<path d="M109.46,166.34c0.38,8.77,0.76,17.55,1.15,26.32c0.08,1.92,3.08,1.93,3,0c-0.38-8.77-0.76-17.55-1.15-26.32
					C112.38,164.42,109.38,164.41,109.46,166.34L109.46,166.34z"/>
			</g>
		</g>
		<g class="st1">
			<g>
				<path d="M103.89,170.75c-1.56,0.07-2.9,1.09-3.36,2.59c-0.21,0.68-0.21,1.48,0,2.17c0.23,0.75,0.7,1.5,1.42,1.84
					c0.91,0.44,1.88,0.28,2.74-0.2c0.58-0.32,1.12-0.84,1.42-1.45c0.37-0.76,0.47-1.59,0.27-2.42c-0.18-0.75-0.67-1.49-1.35-1.87
					c-0.61-0.34-1.39-0.4-2.01-0.04c-0.53,0.3-0.81,0.77-1.02,1.32c-0.31,0.82-0.34,1.84,0.16,2.59c0.22,0.33,0.51,0.58,0.9,0.69
					c0.36,0.1,0.84,0.05,1.16-0.15c0.32-0.21,0.6-0.51,0.69-0.9c0.09-0.38,0.07-0.82-0.15-1.16c-0.03-0.05-0.06-0.1-0.09-0.15
					c0.05,0.12,0.1,0.24,0.15,0.36c-0.04-0.09-0.06-0.18-0.08-0.28c0.02,0.13,0.04,0.27,0.05,0.4c-0.02-0.14-0.01-0.28,0-0.42
					c-0.02,0.13-0.04,0.27-0.05,0.4c0.03-0.22,0.09-0.43,0.18-0.64c-0.05,0.12-0.1,0.24-0.15,0.36c0.03-0.07,0.06-0.13,0.11-0.2
					c-0.08,0.1-0.16,0.2-0.23,0.3c0.03-0.05,0.07-0.08,0.11-0.12c-0.1,0.08-0.2,0.16-0.3,0.23c0.03-0.02,0.06-0.04,0.09-0.06
					c-0.12,0.05-0.24,0.1-0.36,0.15c0.05-0.02,0.09-0.03,0.15-0.04c-0.13,0.02-0.27,0.04-0.4,0.05c0.03,0,0.07,0,0.1,0
					c-0.13-0.02-0.27-0.04-0.4-0.05c0.07,0.01,0.13,0.03,0.2,0.06c-0.12-0.05-0.24-0.1-0.36-0.15c0.07,0.03,0.13,0.07,0.19,0.11
					c-0.1-0.08-0.2-0.16-0.3-0.23c0.07,0.06,0.14,0.12,0.2,0.2c-0.08-0.1-0.16-0.2-0.23-0.3c0.09,0.13,0.17,0.26,0.23,0.4
					c-0.05-0.12-0.1-0.24-0.15-0.36c0.06,0.15,0.1,0.3,0.12,0.45c-0.02-0.13-0.04-0.27-0.05-0.4c0.02,0.18,0.02,0.35,0.01,0.53
					c0.02-0.13,0.04-0.27,0.05-0.4c-0.02,0.18-0.07,0.34-0.14,0.51c0.05-0.12,0.1-0.24,0.15-0.36c-0.06,0.14-0.14,0.28-0.24,0.4
					c0.08-0.1,0.16-0.2,0.23-0.3c-0.11,0.14-0.23,0.26-0.37,0.37c0.1-0.08,0.2-0.16,0.3-0.23c-0.17,0.13-0.36,0.24-0.56,0.32
					c0.12-0.05,0.24-0.1,0.36-0.15c-0.15,0.06-0.3,0.1-0.46,0.13c0.13-0.02,0.27-0.04,0.4-0.05c-0.09,0.01-0.18,0.01-0.27,0
					c0.13,0.02,0.27,0.04,0.4,0.05c-0.08-0.01-0.16-0.03-0.24-0.06c0.12,0.05,0.24,0.1,0.36,0.15c-0.08-0.04-0.16-0.08-0.23-0.14
					c0.1,0.08,0.2,0.16,0.3,0.23c-0.07-0.06-0.13-0.12-0.19-0.2c0.08,0.1,0.16,0.2,0.23,0.3c-0.09-0.12-0.17-0.25-0.23-0.38
					c0.05,0.12,0.1,0.24,0.15,0.36c-0.08-0.19-0.13-0.39-0.17-0.6c0.02,0.13,0.04,0.27,0.05,0.4c-0.03-0.21-0.03-0.42,0-0.63
					c-0.02,0.13-0.04,0.27-0.05,0.4c0.03-0.21,0.09-0.41,0.17-0.6c-0.05,0.12-0.1,0.24-0.15,0.36c0.07-0.15,0.15-0.29,0.24-0.42
					c-0.08,0.1-0.16,0.2-0.23,0.3c0.12-0.15,0.25-0.29,0.41-0.41c-0.1,0.08-0.2,0.16-0.3,0.23c0.14-0.1,0.29-0.19,0.45-0.26
					c-0.12,0.05-0.24,0.1-0.36,0.15c0.18-0.07,0.36-0.12,0.55-0.15c-0.13,0.02-0.27,0.04-0.4,0.05c0.06-0.01,0.11-0.01,0.17-0.01
					c0.39-0.02,0.78-0.16,1.06-0.44c0.26-0.26,0.46-0.69,0.44-1.06C105.35,171.47,104.73,170.72,103.89,170.75L103.89,170.75z"/>
			</g>
		</g>
		<g class="st1">
			<g>
				<path d="M103.71,183.8c-0.66,0.11-1.31,0.52-1.76,1c-0.51,0.54-0.84,1.19-1.06,1.9c-0.08,0.26-0.14,0.52-0.2,0.78
					c-0.08,0.36-0.18,0.75-0.17,1.12c0.04,1.08,0.76,1.9,1.82,2.09c0.75,0.13,1.65,0.17,2.39-0.02c0.72-0.19,1.37-0.72,1.7-1.39
					c0.67-1.36,0.49-3.29-0.9-4.14c-1.62-0.98-4.22,0.17-4.08,2.2c0.06,0.89,0.56,1.83,1.32,2.32c0.89,0.58,2.04,0.35,2.76-0.37
					c1.12-1.13,1.23-2.97,0.54-4.35c-0.2-0.39-0.53-0.74-0.92-0.94c-0.37-0.19-0.77-0.27-1.18-0.33c-0.82-0.13-1.71-0.11-2.42,0.4
					c-0.49,0.36-0.83,0.79-1.02,1.37c-0.09,0.29-0.11,0.6-0.19,0.89c-0.12,0.4-0.23,0.78-0.23,1.21c0,0.43,0.09,0.84,0.26,1.23
					c0.37,0.88,1.04,1.47,1.93,1.8c0.64,0.24,1.37,0.25,2.04,0.19c0.4-0.04,0.76-0.14,1.06-0.44c0.26-0.26,0.46-0.69,0.44-1.06
					c-0.02-0.39-0.14-0.79-0.44-1.06c-0.28-0.26-0.67-0.47-1.06-0.44c-0.36,0.03-0.72,0.04-1.07,0c0.13,0.02,0.27,0.04,0.4,0.05
					c-0.22-0.03-0.43-0.08-0.63-0.17c0.12,0.05,0.24,0.1,0.36,0.15c-0.14-0.06-0.27-0.14-0.39-0.23c0.1,0.08,0.2,0.16,0.3,0.23
					c-0.1-0.08-0.18-0.16-0.26-0.26c0.08,0.1,0.16,0.2,0.23,0.3c-0.1-0.13-0.18-0.27-0.25-0.42c0.05,0.12,0.1,0.24,0.15,0.36
					c-0.05-0.13-0.09-0.27-0.11-0.41c0.02,0.13,0.04,0.27,0.05,0.4c-0.02-0.14-0.02-0.28,0-0.42c-0.02,0.13-0.04,0.27-0.05,0.4
					c0.04-0.28,0.15-0.53,0.21-0.8c0.06-0.26,0.08-0.52,0.17-0.78c-0.05,0.12-0.1,0.24-0.15,0.36c0.03-0.08,0.07-0.15,0.12-0.22
					c-0.08,0.1-0.16,0.2-0.23,0.3c0.05-0.06,0.1-0.12,0.16-0.17c-0.1,0.08-0.2,0.16-0.3,0.23c0.1-0.07,0.2-0.13,0.31-0.18
					c-0.12,0.05-0.24,0.1-0.36,0.15c0.11-0.04,0.23-0.07,0.35-0.09c-0.13,0.02-0.27,0.04-0.4,0.05c0.21-0.03,0.42-0.02,0.63,0.01
					c-0.13-0.02-0.27-0.04-0.4-0.05c0.27,0.04,0.56,0.09,0.82,0.18c-0.12-0.05-0.24-0.1-0.36-0.15c0.04,0.02,0.08,0.04,0.12,0.06
					c-0.1-0.08-0.2-0.16-0.3-0.23c0.05,0.04,0.09,0.08,0.13,0.13c-0.08-0.1-0.16-0.2-0.23-0.3c0.08,0.1,0.13,0.22,0.19,0.33
					c-0.05-0.12-0.1-0.24-0.15-0.36c0.08,0.19,0.13,0.38,0.16,0.58c-0.02-0.13-0.04-0.27-0.05-0.4c0.03,0.22,0.03,0.44,0,0.67
					c0.02-0.13,0.04-0.27,0.05-0.4c-0.03,0.2-0.08,0.39-0.16,0.58c0.05-0.12,0.1-0.24,0.15-0.36c-0.07,0.16-0.15,0.32-0.26,0.46
					c0.08-0.1,0.16-0.2,0.23-0.3c-0.07,0.08-0.14,0.16-0.23,0.23c0.1-0.08,0.2-0.16,0.3-0.23c-0.07,0.05-0.14,0.09-0.21,0.12
					c0.12-0.05,0.24-0.1,0.36-0.15c-0.06,0.02-0.11,0.03-0.18,0.04c0.13-0.02,0.27-0.04,0.4-0.05c-0.04,0-0.08,0-0.12,0
					c0.13,0.02,0.27,0.04,0.4,0.05c-0.06-0.01-0.11-0.02-0.17-0.04c0.12,0.05,0.24,0.1,0.36,0.15c-0.05-0.03-0.1-0.05-0.15-0.08
					c0.1,0.08,0.2,0.16,0.3,0.23c-0.08-0.06-0.14-0.13-0.21-0.21c0.08,0.1,0.16,0.2,0.23,0.3c-0.11-0.15-0.2-0.32-0.27-0.49
					c0.05,0.12,0.1,0.24,0.15,0.36c-0.04-0.11-0.08-0.21-0.1-0.33c0.02,0.13,0.04,0.27,0.05,0.4c-0.01-0.07-0.01-0.13,0-0.2
					c-0.02,0.13-0.04,0.27-0.05,0.4c0.01-0.08,0.03-0.15,0.06-0.23c-0.05,0.12-0.1,0.24-0.15,0.36c0.04-0.07,0.08-0.14,0.12-0.2
					c-0.08,0.1-0.16,0.2-0.23,0.3c0.05-0.06,0.11-0.12,0.17-0.17c-0.1,0.08-0.2,0.16-0.3,0.23c0.07-0.05,0.15-0.1,0.23-0.14
					c-0.12,0.05-0.24,0.1-0.36,0.15c0.13-0.05,0.26-0.09,0.4-0.11c-0.13,0.02-0.27,0.04-0.4,0.05c0.14-0.01,0.28-0.02,0.41,0
					c-0.13-0.02-0.27-0.04-0.4-0.05c0.12,0.02,0.22,0.04,0.33,0.09c-0.12-0.05-0.24-0.1-0.36-0.15c0.06,0.03,0.11,0.06,0.16,0.1
					c-0.1-0.08-0.2-0.16-0.3-0.23c0.06,0.05,0.12,0.11,0.17,0.17c-0.08-0.1-0.16-0.2-0.23-0.3c0.06,0.08,0.11,0.17,0.15,0.26
					c-0.05-0.12-0.1-0.24-0.15-0.36c0.06,0.15,0.11,0.31,0.13,0.47c-0.02-0.13-0.04-0.27-0.05-0.4c0.02,0.19,0.03,0.37,0,0.56
					c0.02-0.13,0.04-0.27,0.05-0.4c-0.03,0.19-0.07,0.36-0.14,0.53c0.05-0.12,0.1-0.24,0.15-0.36c-0.05,0.12-0.11,0.22-0.19,0.32
					c0.08-0.1,0.16-0.2,0.23-0.3c-0.07,0.08-0.14,0.16-0.22,0.22c0.1-0.08,0.2-0.16,0.3-0.23c-0.07,0.05-0.15,0.1-0.23,0.14
					c0.12-0.05,0.24-0.1,0.36-0.15c-0.13,0.05-0.26,0.08-0.4,0.1c0.13-0.02,0.27-0.04,0.4-0.05c-0.43,0.04-0.88,0.04-1.3-0.01
					c0.13,0.02,0.27,0.04,0.4,0.05c-0.16-0.02-0.32-0.05-0.47-0.12c0.12,0.05,0.24,0.1,0.36,0.15c-0.04-0.02-0.07-0.04-0.11-0.06
					c0.1,0.08,0.2,0.16,0.3,0.23c-0.03-0.02-0.06-0.05-0.09-0.08c0.08,0.1,0.16,0.2,0.23,0.3c-0.04-0.05-0.06-0.1-0.09-0.15
					c0.05,0.12,0.1,0.24,0.15,0.36c-0.01-0.04-0.02-0.08-0.03-0.11c0.02,0.13,0.04,0.27,0.05,0.4c-0.01-0.1-0.01-0.2,0-0.31
					c-0.02,0.13-0.04,0.27-0.05,0.4c0.08-0.58,0.23-1.19,0.46-1.73c-0.05,0.12-0.1,0.24-0.15,0.36c0.1-0.23,0.22-0.44,0.37-0.64
					c-0.08,0.1-0.16,0.2-0.23,0.3c0.13-0.16,0.27-0.31,0.43-0.44c-0.1,0.08-0.2,0.16-0.3,0.23c0.13-0.1,0.27-0.18,0.42-0.25
					c-0.12,0.05-0.24,0.1-0.36,0.15c0.13-0.05,0.27-0.09,0.41-0.11c0.35-0.06,0.73-0.4,0.9-0.69c0.19-0.32,0.27-0.8,0.15-1.16
					c-0.12-0.36-0.34-0.71-0.69-0.9C104.48,183.76,104.13,183.74,103.71,183.8L103.71,183.8z"/>
			</g>
		</g>
	</g>
	<g id="_x31_">
		<g class="st1">
			<g>
				<path d="M84.09,154.19c7.32,8.8,14.64,17.59,22.14,26.24c0.49,0.57,1.64,0.6,2.12,0c3.52-4.35,7.01-8.54,11.12-12.36
					c4.11-3.82,8.49-7.33,12.86-10.85c1.51-1.21-0.63-3.32-2.12-2.12c-4.37,3.51-8.75,7.03-12.86,10.85
					c-4.11,3.82-7.6,8.01-11.12,12.36c0.71,0,1.41,0,2.12,0c-7.5-8.65-14.82-17.44-22.14-26.24
					C84.98,150.58,82.87,152.71,84.09,154.19L84.09,154.19z"/>
			</g>
		</g>
		<g class="st1">
			<g>
				<path d="M120.44,181.88c-1.17,4.29-1.45,8.75-0.81,13.15c0.15,1.03,0.32,2.08,0.81,3.02c0.5,0.94,1.29,1.71,1.99,2.48
					c1.61,1.77,3.23,3.54,4.84,5.3c0.41,0.44,1.31,0.61,1.82,0.23c1.19-0.89,1.93-2.01,2.83-3.16c0.91-1.17,2.07-1.94,3.49-2.33
					c1.18-0.32,1.34-1.66,0.66-2.51c-0.54-0.67-0.3-1.99-0.27-2.78c0.04-1.32,0.09-2.64,0.13-3.96c0.08-2.56,0.17-5.13,0.25-7.69
					c0.02-0.76-0.71-1.58-1.5-1.5c-3.96,0.38-8.27,0.84-12.03-0.8c-1.75-0.77-3.28,1.82-1.51,2.59c4.33,1.89,8.94,1.65,13.54,1.21
					c-0.5-0.5-1-1-1.5-1.5c-0.1,3-0.2,6.01-0.29,9.01c-0.08,2.53-0.63,5.42,1.06,7.54c0.22-0.84,0.44-1.67,0.66-2.51
					c-1.56,0.43-2.99,1.21-4.15,2.34c-1.06,1.04-1.69,2.56-2.89,3.45c0.61,0.08,1.21,0.16,1.82,0.23c-1.41-1.55-2.83-3.09-4.24-4.64
					c-0.64-0.7-1.44-1.4-1.94-2.21c-0.47-0.77-0.58-1.76-0.7-2.63c-0.53-3.86-0.22-7.8,0.81-11.55
					C123.84,180.81,120.95,180.02,120.44,181.88L120.44,181.88z"/>
			</g>
		</g>
		<g id="Layer_6" class="st1">
		</g>
	</g>
</g>
</svg>
