<?xml version="1.0" encoding="utf-8"?>
<!-- Generator: Adobe Illustrator 24.1.2, SVG Export Plug-In . SVG Version: 6.00 Build 0)  -->
<svg version="1.1" id="Color" xmlns="http://www.w3.org/2000/svg" xmlns:xlink="http://www.w3.org/1999/xlink" x="0px" y="0px"
	 viewBox="0 0 150 150" style="enable-background:new 0 0 150 150;" xml:space="preserve">
<style type="text/css">
	.st0{fill:#CBE1B7;}
</style>
<g>
	<path class="st0" d="M54.58,15.4c-46.29,4.23-61.59,62.54-43.16,99c14.45,28.28,55.05,26.68,81.7,20.03
		c44.53-13.05,73.42-58.26,34.72-95.82C106.4,19.47,70.49,3.08,42.9,16.69L54.58,15.4z"/>
	<g>
		<path d="M54.58,13.9c-13.1,1.23-25.21,6.99-34.17,16.68c-8.68,9.39-14.1,21.51-16.53,33.99C1.4,77.3,1.8,90.71,5.43,103.19
			c1.82,6.25,4.38,12.54,8.32,17.76c4.09,5.43,9.49,9.7,15.6,12.65c12.82,6.19,27.72,7.13,41.72,5.98
			c6.87-0.56,13.7-1.65,20.41-3.22c7.71-1.8,15.23-5.09,22.07-9.05c12.69-7.35,24.02-18.19,29.87-31.83
			c2.71-6.33,4.19-13.16,4.01-20.06c-0.19-7.32-2.22-14.48-5.6-20.96c-7.99-15.35-22.75-26.28-37.89-33.99
			C88.67,12.7,70.8,7.75,53.69,11.39c-4,0.85-7.87,2.22-11.55,4.01c-1.29,0.63-0.72,2.96,0.76,2.8c3.89-0.43,7.79-0.87,11.68-1.3
			C56.48,16.68,56.5,13.68,54.58,13.9c-3.89,0.43-7.79,0.87-11.68,1.3c0.25,0.93,0.5,1.86,0.76,2.8
			c15.13-7.39,32.72-5.36,48.04,0.34c7.95,2.96,15.52,6.97,22.57,11.68c6.94,4.63,13.42,9.86,18.68,16.38
			c9,11.16,13.67,25.43,10.43,39.65c-3.07,13.49-12.14,24.98-23.03,33.18c-6.08,4.58-12.82,8.32-19.91,11.11
			c-6.47,2.55-13.18,4.06-20.04,5.14c-13.34,2.09-27.49,2.47-40.6-1.16c-6.22-1.72-12.28-4.44-17.3-8.55
			c-5.1-4.17-8.74-9.47-11.35-15.48c-4.9-11.27-6.54-23.9-5.57-36.1c0.97-12.21,4.71-24.38,11.54-34.6
			c6.68-10,16.49-17.65,28.12-20.94c3.06-0.86,6.18-1.44,9.35-1.74C56.49,16.72,56.5,13.71,54.58,13.9z"/>
	</g>
</g>
</svg>
