<?xml version="1.0" encoding="utf-8"?>
<!-- Generator: Adobe Illustrator 24.1.2, SVG Export Plug-In . SVG Version: 6.00 Build 0)  -->
<svg version="1.1" id="Eyes" xmlns="http://www.w3.org/2000/svg" xmlns:xlink="http://www.w3.org/1999/xlink" x="0px" y="0px"
	 viewBox="0 0 150 150" style="enable-background:new 0 0 150 150;" xml:space="preserve">
<g id="_x31__1_">
	<g>
		<g>
			<path d="M42.38,52.18c-3.29-0.88-7.06-0.32-9.54,2.17c-2.12,2.13-2.74,5.47-0.92,7.99c1.16,1.6,2.85,2.59,4.67,3.27
				c1.43,0.53,3.16,0.61,4.68,0.55c1.63-0.06,3.32-0.35,4.76-1.16c1.55-0.87,2.52-2.33,2.72-4.09c0.05-0.43,0.04-0.86-0.01-1.3
				c-0.02-0.13-0.04-0.27-0.05-0.4c0.05,0.16,0.07,0.14,0.05-0.05c0.03-0.14,0-0.31,0-0.46c-0.02-0.34-0.06-0.69-0.12-1.03
				c-0.19-1.07-0.72-2.07-1.48-2.85c-1.5-1.52-3.71-2.07-5.75-2.39c-0.8-0.13-1.61,0.2-1.85,1.05c-0.2,0.71,0.24,1.72,1.05,1.85
				c0.79,0.12,1.58,0.27,2.35,0.51c0.18,0.06,0.37,0.12,0.55,0.18c0.08,0.03,0.16,0.06,0.24,0.09c0.23,0.09-0.31-0.16,0.04,0.02
				c0.32,0.16,0.63,0.34,0.94,0.54c0.23,0.15,0.02,0.01-0.02-0.02c0.06,0.05,0.12,0.1,0.18,0.15c0.13,0.12,0.24,0.24,0.36,0.37
				c0.15,0.17-0.18-0.3,0.01,0.02c0.04,0.07,0.09,0.13,0.13,0.2c0.07,0.11,0.26,0.6,0.16,0.29c0.05,0.16,0.11,0.32,0.15,0.48
				c0.02,0.09,0.04,0.17,0.05,0.26c0.09,0.42-0.01-0.18,0.01,0.08c0.01,0.22,0.02,0.45,0.02,0.67c0,0.1-0.02,0.22-0.02,0.32
				c0.02,0.13,0.04,0.27,0.05,0.4c-0.02-0.18-0.03-0.19-0.01-0.02c0.01,0.32,0.02,0.62-0.01,0.94c0.03-0.43-0.02,0.07-0.05,0.17
				c-0.02,0.08-0.05,0.16-0.07,0.24c-0.02,0.05-0.13,0.32-0.03,0.1c0.1-0.22-0.11,0.19-0.14,0.25c-0.09,0.15-0.25,0.32-0.04,0.08
				c-0.1,0.11-0.18,0.21-0.29,0.31c-0.06,0.06-0.12,0.1-0.17,0.16c-0.18,0.19,0.19-0.12,0.04-0.03c-0.24,0.14-0.46,0.31-0.71,0.43
				c-0.06,0.03-0.12,0.06-0.18,0.09c-0.3,0.15,0.24-0.07,0.03-0.01c-0.17,0.05-0.33,0.12-0.49,0.17c-0.29,0.09-0.59,0.16-0.89,0.22
				c-0.14,0.03-0.29,0.05-0.43,0.08c-0.36,0.06,0.25-0.02,0.01,0c-0.09,0.01-0.19,0.02-0.28,0.03c-0.67,0.07-1.35,0.08-2.02,0.05
				c-0.33-0.01-0.66-0.04-0.98-0.08c-0.11-0.01-0.55-0.09-0.13-0.01c-0.17-0.03-0.34-0.05-0.5-0.08c-0.33-0.06-0.64-0.13-0.96-0.24
				c-0.1-0.04-0.19-0.07-0.29-0.11c-0.03-0.01-0.27-0.11-0.05-0.02c-0.22-0.09-0.43-0.19-0.64-0.3c-0.33-0.17-0.64-0.35-0.95-0.56
				c-0.08-0.06-0.17-0.12-0.25-0.18c0.04,0.03,0.23,0.19,0.03,0.02c-0.14-0.12-0.28-0.24-0.42-0.37c-0.1-0.1-0.2-0.2-0.3-0.31
				c-0.05-0.05-0.09-0.11-0.14-0.16c-0.23-0.24,0.12,0.2,0.02,0.02c-0.14-0.26-0.32-0.51-0.46-0.78c-0.12-0.21,0.09,0.31-0.02-0.06
				c-0.03-0.11-0.07-0.23-0.1-0.34c-0.03-0.13-0.05-0.26-0.08-0.39c-0.05-0.2,0.02,0.4,0.02,0.1c0-0.07-0.01-0.14-0.01-0.21
				c0-0.13,0-0.26,0-0.39c0-0.06,0.01-0.11,0.01-0.17c0-0.27-0.02,0.15-0.02,0.14c-0.07-0.12,0.15-0.66,0.2-0.79
				c0.02-0.05,0.05-0.11,0.06-0.16c0.05-0.19-0.18,0.34-0.03,0.07c0.06-0.1,0.1-0.21,0.16-0.32c0.06-0.12,0.13-0.23,0.21-0.35
				c0.04-0.06,0.32-0.45,0.17-0.26c-0.14,0.18-0.01,0.01,0.03-0.03c0.06-0.07,0.12-0.14,0.19-0.21c0.11-0.12,0.22-0.23,0.34-0.34
				c0.12-0.11,0.25-0.21,0.37-0.32c0.14-0.13-0.24,0.16-0.07,0.05c0.08-0.05,0.16-0.12,0.24-0.17c0.28-0.19,0.58-0.36,0.88-0.51
				c0.06-0.03,0.13-0.05,0.19-0.09c0.1-0.06-0.29,0.1,0.03-0.01c0.17-0.06,0.34-0.12,0.51-0.18c0.36-0.11,0.72-0.19,1.08-0.26
				c0.05-0.01,0.3-0.04,0.08-0.01c-0.23,0.03,0.16-0.01,0.21-0.02c0.2-0.02,0.4-0.03,0.59-0.03c0.41-0.01,0.82,0.02,1.24,0.06
				c0.23,0.02-0.25-0.04-0.02,0c0.13,0.02,0.26,0.04,0.39,0.07c0.24,0.05,0.48,0.11,0.72,0.17C43.45,55.57,44.24,52.68,42.38,52.18
				L42.38,52.18z"/>
		</g>
	</g>
	<g>
		<g>
			<path d="M98.16,51.34c-2.98-0.52-5.96,0.61-8.07,2.75c-1.96,1.99-3.15,4.94-1.95,7.64c1.42,3.2,5.3,3.92,8.42,4.15
				c1.75,0.13,3.63-0.09,5.15-1.03c0.84-0.51,1.5-1.16,1.91-2.05c0.34-0.72,0.61-1.47,0.76-2.26c0.35-1.87,0.19-3.75-0.59-5.49
				c-0.79-1.77-2.28-3.02-4.08-3.7c-0.76-0.28-1.64,0.32-1.85,1.05c-0.23,0.84,0.29,1.56,1.05,1.85c0.05,0.02,0.27,0.11,0.03,0
				c0.06,0.03,0.12,0.06,0.19,0.09c0.14,0.07,0.28,0.14,0.41,0.22c0.13,0.08,0.26,0.16,0.38,0.25c0.14,0.1-0.03-0.02-0.05-0.04
				c0.08,0.07,0.16,0.14,0.24,0.21c0.11,0.1,0.21,0.2,0.31,0.31c0.05,0.05,0.29,0.36,0.2,0.23c-0.09-0.13,0.14,0.22,0.17,0.26
				c0.09,0.14,0.17,0.29,0.25,0.43c0.06,0.11,0.11,0.22,0.16,0.34c-0.14-0.31,0.05,0.16,0.07,0.23c0.09,0.28,0.16,0.57,0.22,0.86
				c0.02,0.08,0.03,0.17,0.04,0.25c0-0.02-0.03-0.26-0.01-0.08c0.01,0.15,0.03,0.3,0.04,0.45c0.02,0.32,0.01,0.65-0.01,0.97
				c-0.01,0.11-0.05,0.48-0.01,0.18c-0.02,0.15-0.05,0.3-0.08,0.45c-0.06,0.32-0.15,0.63-0.25,0.94c-0.05,0.14-0.1,0.28-0.15,0.42
				c-0.06,0.16,0.02-0.04,0.03-0.06c-0.04,0.08-0.07,0.16-0.11,0.23c-0.07,0.13-0.14,0.27-0.21,0.4c-0.08,0.14,0.02-0.01,0.03-0.03
				c-0.08,0.09-0.18,0.17-0.27,0.26c-0.12,0.11-0.01,0.02,0.02,0c-0.07,0.06-0.16,0.11-0.24,0.17c-0.12,0.08-0.24,0.15-0.37,0.22
				c-0.08,0.05-0.17,0.09-0.25,0.13c0.03-0.01,0.19-0.08,0.03-0.01c-0.18,0.07-0.36,0.13-0.54,0.18c-0.16,0.05-0.33,0.08-0.49,0.12
				c-0.1,0.02-0.19,0.04-0.29,0.05c0.03,0,0.21-0.02,0.03-0.01c-0.37,0.04-0.74,0.06-1.12,0.05c-0.36,0-0.71-0.02-1.06-0.06
				c-0.08-0.01-0.15-0.02-0.23-0.02c-0.03,0-0.35-0.04-0.18-0.02c0.15,0.02-0.1-0.01-0.1-0.02c-0.13-0.02-0.25-0.04-0.38-0.06
				c-0.7-0.12-1.4-0.27-2.1-0.44c-0.07-0.02-0.14-0.04-0.2-0.05c-0.04-0.01-0.32-0.06-0.16-0.02c0.14,0.04-0.07-0.02-0.09-0.03
				c-0.09-0.04-0.17-0.08-0.25-0.13c-0.28-0.14-0.53-0.31-0.79-0.48c-0.22-0.14,0.13,0.12-0.13-0.1c-0.1-0.09-0.2-0.18-0.29-0.28
				c-0.09-0.09-0.17-0.2-0.26-0.29c-0.14-0.14,0.12,0.22,0.04,0.05c-0.03-0.06-0.08-0.12-0.12-0.17c-0.06-0.1-0.12-0.21-0.18-0.31
				c-0.03-0.06-0.05-0.12-0.09-0.18c0.01,0.01,0.08,0.28,0.06,0.13c-0.04-0.22-0.12-0.49-0.19-0.71c0.07,0.25,0.02,0.2,0.01-0.03
				c-0.01-0.11-0.01-0.23-0.01-0.34c0-0.11,0.02-0.23,0.02-0.34c0-0.16-0.02,0.15-0.02,0.15c0.02-0.08,0.03-0.16,0.04-0.25
				c0.04-0.22,0.1-0.43,0.17-0.64c0.02-0.04,0.16-0.42,0.07-0.21c-0.08,0.2,0.01-0.01,0.03-0.06c0.04-0.08,0.08-0.16,0.12-0.24
				c0.11-0.21,0.23-0.41,0.35-0.61c0.07-0.11,0.15-0.21,0.22-0.32c0.04-0.06,0.18-0.22-0.03,0.04c0.05-0.06,0.09-0.12,0.14-0.17
				c0.19-0.23,0.4-0.45,0.62-0.66c0.11-0.11,0.22-0.21,0.34-0.31c0.08-0.07,0.41-0.33,0.14-0.13c0.51-0.39,1.06-0.7,1.64-0.98
				c0.15-0.07-0.08,0.03-0.09,0.04c0.09-0.04,0.18-0.07,0.27-0.1c0.15-0.05,0.29-0.1,0.44-0.15c0.3-0.09,0.6-0.14,0.9-0.21
				c0.17-0.04-0.1,0.01-0.11,0.01c0.1-0.01,0.19-0.02,0.29-0.03c0.15-0.01,0.31-0.02,0.46-0.02c0.16,0,0.31,0.01,0.46,0.02
				c0.06,0,0.12,0.01,0.17,0.02c-0.37-0.01-0.02,0,0.07,0.01c0.8,0.14,1.62-0.21,1.85-1.05C99.41,52.46,98.96,51.48,98.16,51.34
				L98.16,51.34z"/>
		</g>
	</g>
	<path d="M40.3,60.42c0.06,3.46-6.14,3.46-6.07,0C34.16,56.96,40.36,56.96,40.3,60.42z"/>
	<path d="M97.02,60.42c0.05,3.74-5.82,3.74-5.76,0C91.2,56.68,97.08,56.68,97.02,60.42z"/>
</g>
</svg>
