<?xml version="1.0" encoding="utf-8"?>
<!-- Generator: Adobe Illustrator 24.1.2, SVG Export Plug-In . SVG Version: 6.00 Build 0)  -->
<svg version="1.1" id="Eyes" xmlns="http://www.w3.org/2000/svg" xmlns:xlink="http://www.w3.org/1999/xlink" x="0px" y="0px"
	 viewBox="0 0 150 150" style="enable-background:new 0 0 150 150;" xml:space="preserve">
<g id="_x34_">
	<g>
		<g>
			<path d="M32.12,49.81c-5.16,2.47-9.16,7.21-8.22,13.2c0.78,4.96,4.72,8.97,9.32,10.67c5.99,2.21,12.73,0.05,16.86-4.67
				c2.02-2.31,3.42-5.22,3.31-8.34c-0.1-2.75-1.28-5.32-3.12-7.34c-4.91-5.39-13.07-5.85-19.24-2.54c-1.7,0.91-0.19,3.5,1.51,2.59
				c4.47-2.4,10.15-2.43,14.25,0.79c3.66,2.87,4.67,7.54,2.1,11.49c-2.85,4.38-8.34,6.83-13.46,5.56c-3.83-0.95-7.21-3.85-8.32-7.55
				c-0.58-1.94-0.53-4,0.39-5.86c1.27-2.55,3.62-4.21,6.13-5.41C35.38,51.57,33.86,48.98,32.12,49.81L32.12,49.81z"/>
		</g>
	</g>
	<g>
		<g>
			<path d="M99.33,49.62c-5.66,2.35-10.49,7.05-10.95,13.44C88,68.35,91.43,73.1,96.64,74.21c3.53,0.75,7.01-0.02,10.37-1.12
				c3.24-1.06,6.45-2.65,8.84-5.14c3.71-3.87,4.44-9.52,1.03-13.82c-4.81-6.08-13.86-6.17-20.74-4.57c-1.88,0.44-1.08,3.33,0.8,2.89
				c5.31-1.23,12.11-1.45,16.43,2.33c1.51,1.32,2.47,2.82,2.75,4.79c-0.03-0.24,0.02,0.27,0.03,0.36c0.01,0.26,0.02,0.51,0.01,0.77
				c-0.02,0.6-0.03,0.63-0.18,1.22c-0.25,1.04-0.61,1.77-1.23,2.69c-1.42,2.1-3.76,3.59-6.07,4.65c-2.82,1.29-6.09,2.32-9.22,2.27
				c-2.17-0.03-4.32-0.69-5.78-2.06c-1.33-1.24-2.15-3.04-2.29-4.74c-0.46-5.48,3.73-10.14,8.74-12.22
				c0.75-0.31,1.27-0.99,1.05-1.85C100.99,49.96,100.08,49.31,99.33,49.62L99.33,49.62z"/>
		</g>
	</g>
	<path d="M35.56,64c0.06,4.23-6.58,4.23-6.52,0C28.98,59.77,35.62,59.77,35.56,64z"/>
	<path d="M115.26,60.3c0.06,4.04-6.28,4.04-6.22,0C108.98,56.26,115.32,56.26,115.26,60.3z"/>
</g>
</svg>
