<?xml version="1.0" encoding="utf-8"?>
<!-- Generator: Adobe Illustrator 24.1.2, SVG Export Plug-In . SVG Version: 6.00 Build 0)  -->
<svg version="1.1" id="Eyes" xmlns="http://www.w3.org/2000/svg" xmlns:xlink="http://www.w3.org/1999/xlink" x="0px" y="0px"
	 viewBox="0 0 150 150" style="enable-background:new 0 0 150 150;" xml:space="preserve">
<g id="_x35_">
	<g>
		<g>
			<path d="M27.94,54.05c0.01,2.13-0.01,4.26,0.24,6.38c0.26,2.23,0.71,4.62,2.08,6.47c1.57,2.1,3.93,2.81,6.46,2.4
				c1.43-0.23,2.69-1.68,3.42-2.84c0.72-1.13,1.16-2.46,1.44-3.76c0.67-3.08,0.51-6.24,1.31-9.19c0.51-1.87-2.39-2.66-2.89-0.8
				c-0.67,2.47-0.69,5.05-1.03,7.57c-0.29,2.12-0.79,4.53-2.5,5.87c0.05-0.04-0.39,0.25-0.39,0.25c-0.09,0.04-0.17,0.02-0.41,0.03
				c-0.25,0.02-0.5,0.01-0.75,0c-0.04,0-0.5-0.07-0.16-0.01c-0.13-0.02-0.26-0.05-0.39-0.08c-0.09-0.02-0.66-0.24-0.36-0.11
				c-0.19-0.09-0.36-0.19-0.54-0.3c-0.07-0.04-0.14-0.09-0.2-0.14c0.28,0.21-0.03-0.04-0.07-0.08c-0.14-0.15-0.29-0.29-0.42-0.44
				c-0.27-0.31,0.16,0.25-0.07-0.09c-0.05-0.07-0.1-0.14-0.14-0.21c-0.12-0.18-0.22-0.37-0.32-0.56c-0.04-0.07-0.29-0.63-0.18-0.38
				c-0.11-0.26-0.2-0.52-0.28-0.79c-0.13-0.42-0.24-0.84-0.33-1.27c-0.05-0.24-0.1-0.49-0.14-0.73c-0.03-0.15-0.05-0.3-0.07-0.45
				c-0.05-0.32,0.01,0.15-0.03-0.21c-0.26-2.17-0.25-4.35-0.26-6.53C30.93,52.12,27.93,52.12,27.94,54.05L27.94,54.05z"/>
		</g>
	</g>
	<g>
		<g>
			<path d="M94.1,56.41c0.5,1.15,0.56,2.61,0.61,3.98c0.06,1.58,0.08,3.16,0.37,4.71c0.29,1.55,0.98,3.07,2.13,4.18
				c1.11,1.07,2.61,1.51,4.14,1.6c5.24,0.29,6.17-5.78,6.41-9.72c0.07-1.26,0.1-2.52,0.13-3.78c0.02-0.55,0.03-1.1,0.07-1.64
				c0.02-0.27,0.03-0.53,0.06-0.8c0.01-0.11,0.02-0.21,0.03-0.32c0.04-0.44-0.03,0.16,0.01-0.1c0.12-0.8-0.2-1.61-1.05-1.85
				c-0.7-0.19-1.73,0.24-1.85,1.05c-0.28,1.95-0.27,3.91-0.34,5.87c-0.04,1.04-0.09,2.09-0.2,3.13c-0.01,0.14-0.03,0.28-0.05,0.42
				c0,0.04-0.07,0.49-0.02,0.15c-0.03,0.22-0.07,0.45-0.11,0.67c-0.09,0.49-0.2,0.97-0.34,1.44c-0.06,0.21-0.14,0.42-0.21,0.63
				c-0.15,0.41,0.07-0.1-0.12,0.28c-0.09,0.18-0.18,0.36-0.29,0.53c-0.05,0.08-0.1,0.15-0.15,0.22c-0.14,0.21,0.2-0.19-0.09,0.1
				c-0.12,0.12-0.24,0.24-0.36,0.35c-0.25,0.23,0.28-0.17-0.02,0.01c-0.07,0.04-0.14,0.09-0.21,0.13c-0.07,0.05-0.15,0.08-0.23,0.12
				c0.36-0.18,0.07-0.03-0.03,0c-0.12,0.03-0.76,0.13-0.35,0.1c-0.81,0.07-1.71,0.06-2.46-0.45c-1.04-0.72-1.43-1.97-1.65-3.19
				c-0.54-3,0.03-6.33-1.27-9.32c-0.32-0.74-1.41-0.91-2.05-0.54C93.87,54.8,93.78,55.66,94.1,56.41L94.1,56.41z"/>
		</g>
	</g>
</g>
</svg>
