<?xml version="1.0" encoding="utf-8"?>
<!-- Generator: Adobe Illustrator 24.1.2, SVG Export Plug-In . SVG Version: 6.00 Build 0)  -->
<svg version="1.1" id="Mouth" xmlns="http://www.w3.org/2000/svg" xmlns:xlink="http://www.w3.org/1999/xlink" x="0px" y="0px"
	 viewBox="0 0 150 150" style="enable-background:new 0 0 150 150;" xml:space="preserve">
<g id="Layer_13">
	<g>
		<g>
			<path d="M25.15,98.85c2.7,4.49,7.86,6.95,12.63,8.57c6.64,2.26,13.75,3.19,20.72,3.58c7.88,0.44,15.81,0.09,23.63-0.98
				c7.02-0.96,14.06-2.49,20.61-5.23c5.42-2.26,11.49-5.62,13.96-11.27c0.77-1.75-1.82-3.28-2.59-1.51
				c-1.94,4.44-6.38,7.21-10.74,9.26c-6.08,2.85-12.79,4.42-19.4,5.47c-7.35,1.18-14.84,1.61-22.28,1.4
				c-6.88-0.19-13.81-0.92-20.45-2.78c-2.94-0.82-5.83-1.87-8.47-3.42c-2.05-1.2-3.9-2.71-5.03-4.6
				C26.74,95.69,24.15,97.19,25.15,98.85L25.15,98.85z"/>
		</g>
	</g>
</g>
</svg>
