<?xml version="1.0" encoding="utf-8"?>
<!-- Generator: Adobe Illustrator 24.1.2, SVG Export Plug-In . SVG Version: 6.00 Build 0)  -->
<svg version="1.1" id="Mouth" xmlns="http://www.w3.org/2000/svg" xmlns:xlink="http://www.w3.org/1999/xlink" x="0px" y="0px"
	 viewBox="0 0 150 150" style="enable-background:new 0 0 150 150;" xml:space="preserve">
<g id="Layer_10">
	<g>
		<g>
			<path d="M41.02,97.12c1.2,9.67,9.72,15.31,18.42,17.89c4.34,1.29,9.04,2.13,13.55,1.44c5-0.77,9.7-3.27,13.45-6.62
				c4.25-3.8,7.27-8.89,7.96-14.59c0.23-1.91-2.77-1.9-3,0c-1.06,8.8-9.19,16.02-17.51,17.99c-4.04,0.95-8.16,0.33-12.12-0.69
				c-3.85-0.99-7.6-2.49-10.87-4.8c-3.56-2.51-6.33-6.2-6.87-10.62C43.78,95.23,40.78,95.21,41.02,97.12L41.02,97.12z"/>
		</g>
	</g>
</g>
</svg>
