<?xml version="1.0" encoding="utf-8"?>
<!-- Generator: Adobe Illustrator 24.1.2, SVG Export Plug-In . SVG Version: 6.00 Build 0)  -->
<svg version="1.1" id="Mouth" xmlns="http://www.w3.org/2000/svg" xmlns:xlink="http://www.w3.org/1999/xlink" x="0px" y="0px"
	 viewBox="0 0 150 150" style="enable-background:new 0 0 150 150;" xml:space="preserve">
<g id="Layer_9">
	<g>
		<g>
			<path d="M46.4,90.1c0.98,4.3,4.17,7.4,8.76,6.99c4.15-0.37,8.11-2.73,10.9-5.74c-0.84-0.22-1.67-0.44-2.51-0.66
				c1.61,4.66,5.74,7.58,10.72,7.23c4.72-0.33,9.2-3.11,11.37-7.35c0.88-1.72-1.71-3.24-2.59-1.51c-1.64,3.21-4.91,5.48-8.52,5.85
				c-3.68,0.38-6.86-1.47-8.08-5.01c-0.35-1.01-1.7-1.54-2.51-0.66c-2.18,2.36-5.21,4.35-8.45,4.83c-1.28,0.19-2.66,0.09-3.77-0.61
				c-1.44-0.91-2.06-2.55-2.43-4.14C48.86,87.42,45.97,88.22,46.4,90.1L46.4,90.1z"/>
		</g>
	</g>
</g>
</svg>
